<?xml version="1.0" encoding="UTF-8" standalone="no"?>
<!DOCTYPE svg PUBLIC "-//W3C//DTD SVG 1.1//EN" "http://www.w3.org/Graphics/SVG/1.1/DTD/svg11.dtd">
<svg width="100%" height="100%" viewBox="0 0 2048 2048" version="1.1" xmlns="http://www.w3.org/2000/svg" xmlns:xlink="http://www.w3.org/1999/xlink" xml:space="preserve" xmlns:serif="http://www.serif.com/" style="fill-rule:evenodd;clip-rule:evenodd;stroke-linecap:round;stroke-linejoin:round;stroke-miterlimit:1.5;">
    <g id="レイヤー5">
        <g transform="matrix(1.04053,0,0,1.54667,-289.985,-958.717)">
            <circle cx="970.699" cy="1579.95" r="100.252"/>
        </g>
        <path d="M614.706,613.944C616.205,816.702 3.805,1027.78 2.236,1126.78C0.653,1226.63 1.704,1227.11 92.138,1228.63C202.102,1230.47 613.547,913.567 613.547,913.567C613.547,913.567 618.978,1230.2 723.983,1229.97C823.872,1229.75 821.677,909.444 821.677,909.444C821.677,909.444 819.46,409.098 818.044,203.739C817.25,88.505 819.182,0.751 718.258,1.614C615.169,2.495 614.843,99.734 613.61,203.307C611.155,409.584 613.212,411.688 614.706,613.944Z" style="stroke:black;stroke-width:1px;"/>
    </g>
</svg>
