<?xml version="1.0" encoding="UTF-8" standalone="no"?>
<!DOCTYPE svg PUBLIC "-//W3C//DTD SVG 1.1//EN" "http://www.w3.org/Graphics/SVG/1.1/DTD/svg11.dtd">
<svg width="100%" height="100%" viewBox="0 0 2048 2048" version="1.1" xmlns="http://www.w3.org/2000/svg" xmlns:xlink="http://www.w3.org/1999/xlink" xml:space="preserve" xmlns:serif="http://www.serif.com/" style="fill-rule:evenodd;clip-rule:evenodd;stroke-linecap:round;stroke-linejoin:round;stroke-miterlimit:1.5;">
    <g id="レイヤー5">
        <path d="M3.67,205.366C2.619,305.381 204.034,300.856 204.826,410.642C206.27,610.882 -0.598,1229.05 1.132,1435.47C2.119,1553.22 2.855,1639.29 98.582,1640.13C139.264,1640.49 174.148,1548.54 205.423,1436.97C259.56,1243.85 313.145,999.577 313.145,999.577C313.145,999.577 365.93,1075.27 412.295,1135.26C445.16,1177.78 469.867,1228.33 508.377,1228.08C608.568,1227.42 609,1229.98 612.846,1128.64C614.903,1074.43 356.705,788.124 383.569,615.195C397.694,524.265 414.477,183.516 414.274,97.568C414.059,6.71 333.646,-0.424 302.212,-0.258C203.606,0.263 4.912,87.169 3.67,205.366Z" style="stroke:black;stroke-width:1px;"/>
    </g>
</svg>
