<?xml version="1.0" encoding="UTF-8" standalone="no"?>
<!DOCTYPE svg PUBLIC "-//W3C//DTD SVG 1.1//EN" "http://www.w3.org/Graphics/SVG/1.1/DTD/svg11.dtd">
<svg width="100%" height="100%" viewBox="0 0 2048 2048" version="1.1" xmlns="http://www.w3.org/2000/svg" xmlns:xlink="http://www.w3.org/1999/xlink" xml:space="preserve" xmlns:serif="http://www.serif.com/" style="fill-rule:evenodd;clip-rule:evenodd;stroke-linecap:round;stroke-linejoin:round;stroke-miterlimit:1.5;">
    <g id="レイヤー5">
        <path d="M2.25,1538.69C1.897,1638.25 2.209,1641.25 104.411,1639.65C203.796,1638.09 190.767,1639.16 206.362,1549.36C242.076,1343.7 372.28,617.808 412.343,405.198C424.811,339.035 551.075,353.662 617.201,320.76C684.407,287.32 712.405,205.225 815.579,204.559C932.687,203.803 1023.53,299.771 1024.17,405.821C1025.4,611.283 615.979,613.72 617.348,720.668C618.616,819.751 614.453,1227.12 613.118,1433.11C612.778,1485.45 669.234,1544.65 723.012,1545.25C824.949,1546.4 1435.16,1232.26 1435.01,1123.11C1434.88,1027.53 1431.49,1021.6 1334.27,1022.53C1229.64,1023.53 820.287,1334.35 819.092,1278.48C817.998,1227.32 825.45,1023.65 821.18,815.543C818.91,704.898 1226.65,617.465 1228.31,409.814C1229.89,211.165 1023.36,1.911 820.468,1.196C718.403,0.836 817.405,-2.057 612.036,102.665C407.305,207.061 509.145,0.799 408.501,1.705C304.767,2.639 0.349,97.571 107.311,205.395C203.538,302.397 224.46,308.62 206.938,412.614C173.807,609.249 2.617,1435.12 2.25,1538.69Z" style="stroke:black;stroke-width:1px;"/>
    </g>
</svg>
