<?xml version="1.0" encoding="UTF-8" standalone="no"?>
<!DOCTYPE svg PUBLIC "-//W3C//DTD SVG 1.1//EN" "http://www.w3.org/Graphics/SVG/1.1/DTD/svg11.dtd">
<svg width="100%" height="100%" viewBox="0 0 2048 2048" version="1.1" xmlns="http://www.w3.org/2000/svg" xmlns:xlink="http://www.w3.org/1999/xlink" xml:space="preserve" xmlns:serif="http://www.serif.com/" style="fill-rule:evenodd;clip-rule:evenodd;stroke-linecap:round;stroke-linejoin:round;stroke-miterlimit:1.5;">
    <g id="レイヤー5">
        <path d="M698.586,819.841C698.586,819.841 1.563,1229.86 1.97,1434.62C2.192,1546.63 100.836,1639.3 206.633,1640.2C303.016,1641.03 523.473,1591.36 524.181,1541.07C524.767,1499.45 292.735,1492.07 293.284,1439.94C294.839,1292.2 767.398,1000.09 767.398,1000.09C767.398,1000.09 1024.54,1639.56 1231.78,1634.43C1440.91,1629.27 1641.22,1226.08 1639.75,1125.11C1638.25,1021.85 1636.2,1022.04 1542.35,1023.38C1481.84,1024.24 1332.76,1434.51 1234.2,1435.01C1126.12,1435.56 901.445,931.93 901.445,931.93C901.445,931.93 1639.58,407.285 1638.2,207.249C1637.42,93.94 1547.6,3.596 1436.46,4.242C1325.14,4.888 1229.26,43.546 1229.03,108.57C1228.86,155.814 1354.92,165.131 1355.46,210.277C1357.77,402.803 835.932,758.926 835.932,758.926C835.932,758.926 613.777,0.223 410.006,-0.067C199.204,-0.367 -0.337,409.063 0.072,504.242C0.554,616.341 206.933,207.057 411.202,203.988C517.515,202.391 698.586,819.841 698.586,819.841Z" style="stroke:black;stroke-width:1px;"/>
    </g>
</svg>
