<?xml version="1.0" encoding="UTF-8" standalone="no"?>
<!DOCTYPE svg PUBLIC "-//W3C//DTD SVG 1.1//EN" "http://www.w3.org/Graphics/SVG/1.1/DTD/svg11.dtd">
<svg width="100%" height="100%" viewBox="0 0 2048 2048" version="1.1" xmlns="http://www.w3.org/2000/svg" xmlns:xlink="http://www.w3.org/1999/xlink" xml:space="preserve" xmlns:serif="http://www.serif.com/" style="fill-rule:evenodd;clip-rule:evenodd;stroke-linecap:round;stroke-linejoin:round;stroke-miterlimit:1.5;">
    <g id="レイヤー5">
        <path d="M306.613,2.245C101.423,1.392 -4.095,1436.62 -0.939,1536.23C2.232,1636.32 2.462,1748.32 96.613,1747.34C204.579,1746.23 245.726,1432.46 245.726,1432.46C245.726,1432.46 620.361,1639.13 820.858,1639.43C1231.58,1640.03 1360.64,1098.08 1360.64,1098.08C1360.64,1098.08 1436.02,1229.06 1537.04,1229.44C1638.93,1229.82 1637.78,1229.78 1638.24,1129.79C1638.73,1024.08 1433.67,613.49 1025.6,613.196C819.726,613.047 304.937,816.639 304.937,816.639C304.937,816.639 317.992,715.669 326.113,667.681C334.097,620.506 349.598,520.484 349.598,520.484C349.598,520.484 915.674,207.267 1022.13,205.932C1124.78,204.645 1125.31,409.572 1230.25,409.948C1336.82,410.33 1434.75,321.171 1434.39,206.978C1434.03,93.399 1230.76,-0.169 1023.86,1.124C821.633,2.387 375.149,335.33 375.149,335.33C375.149,335.33 398.796,203.109 411.546,107.925C425.249,5.624 408.037,2.667 306.613,2.245ZM823.528,838.329C1029.4,838.187 1122.53,1025.44 1124.07,1118.33C1125.92,1229.3 1021.75,1435.58 819.812,1435.25C665.973,1434.99 264.805,1198.41 264.805,1198.41C264.805,1198.41 270.042,1132.87 273.47,1101.74C276.877,1070.8 284.039,1008.69 284.039,1008.69C284.039,1008.69 619.216,838.469 823.528,838.329Z" style="stroke:black;stroke-width:1px;"/>
    </g>
</svg>
