<?xml version="1.0" encoding="UTF-8" standalone="no"?>
<!DOCTYPE svg PUBLIC "-//W3C//DTD SVG 1.1//EN" "http://www.w3.org/Graphics/SVG/1.1/DTD/svg11.dtd">
<svg width="100%" height="100%" viewBox="0 0 2048 2048" version="1.1" xmlns="http://www.w3.org/2000/svg" xmlns:xlink="http://www.w3.org/1999/xlink" xml:space="preserve" xmlns:serif="http://www.serif.com/" style="fill-rule:evenodd;clip-rule:evenodd;stroke-linecap:round;stroke-linejoin:round;stroke-miterlimit:1.5;">
    <g id="レイヤー5">
        <path d="M205.272,204.344C205.646,257.316 409.906,264.849 410.376,317.56C413.044,616.691 313.377,953.386 199.668,1230.76C101.423,1470.41 -95.226,1634.11 58.698,1636.86C203.671,1639.45 390.243,1497.39 616.429,1314.58C838.259,1135.28 1332.33,680.737 1332.33,680.737C1332.33,680.737 1432.71,745.826 1434.71,925.265C1436.97,1127.57 1485.04,1229.45 1529.74,1229.43C1640.44,1229.39 1639.49,1228.75 1639.12,1129.14C1638.73,1024 1640.34,2.932 1317.97,2.103C1034.55,1.374 830.847,305.578 903.751,304.515C1013.92,302.908 1118.59,206.453 1229.08,205.958C1491.39,204.781 1166.04,599.376 861.636,842.68C687.226,982.085 603.454,1077.71 488.595,1078.5C411.752,1079.03 523.259,853.985 564.2,672.508C603.646,497.653 613.206,306.203 612.034,207.842C610.712,96.848 517.288,0.548 408.579,1.685C298.174,2.839 204.898,151.372 205.272,204.344Z" style="stroke:black;stroke-width:1px;"/>
    </g>
</svg>
