<?xml version="1.0" encoding="UTF-8" standalone="no"?>
<!DOCTYPE svg PUBLIC "-//W3C//DTD SVG 1.1//EN" "http://www.w3.org/Graphics/SVG/1.1/DTD/svg11.dtd">
<svg width="100%" height="100%" viewBox="0 0 2048 2048" version="1.1" xmlns="http://www.w3.org/2000/svg" xmlns:xlink="http://www.w3.org/1999/xlink" xml:space="preserve" xmlns:serif="http://www.serif.com/" style="fill-rule:evenodd;clip-rule:evenodd;stroke-linecap:round;stroke-linejoin:round;stroke-miterlimit:1.5;">
    <g id="レイヤー5">
        <path d="M-0.066,1532.62C-1.648,1632.94 103.451,1640.79 205.886,1640.74C408.914,1640.62 719.755,1433.7 768.977,1230.68C818.244,1027.49 819.754,821.086 819.83,733.525C819.933,612.735 757.51,615.391 723.33,615.023C689.15,614.655 656.599,682.031 614.507,681.037C569.312,679.969 503,621.282 505.343,506.476C509.625,296.707 715.055,203.04 921.533,204.202C1134.6,205.401 1227.93,293.602 1228.71,412.578C1229.41,519.245 1126.5,715.235 1127.09,816.898C1128.26,1021.81 1122.81,1320.77 1120.53,1434.01C1119.56,1482.51 1024.86,1509.69 1024.55,1543.4C1023.68,1635.87 1024.52,1636.24 1123.98,1636.28C1179.32,1636.31 1335.19,1529.28 1335.43,1430.81C1335.73,1304.18 1338.71,970.648 1338.71,970.648C1338.71,970.648 1391.12,1013.5 1431.82,1084.08C1480.53,1168.54 1512.52,1227.92 1542.68,1228.43C1641.49,1230.08 1641.37,1229.49 1640.59,1138.63C1639.61,1025.03 1381.84,718.79 1384.49,611.362C1386.74,519.718 1434.99,523.882 1435.14,413.452C1435.43,205.219 1226.99,2.172 922.132,2.815C612.662,3.468 303.222,207.626 303.077,518.706C302.939,815.183 521.132,943.395 568.303,880.499C613.284,820.522 614.393,1433.5 199.791,1436.38C89.566,1437.15 1.528,1431.55 -0.066,1532.62Z" style="stroke:black;stroke-width:1px;"/>
    </g>
</svg>
