<?xml version="1.0" encoding="UTF-8" standalone="no"?>
<!DOCTYPE svg PUBLIC "-//W3C//DTD SVG 1.1//EN" "http://www.w3.org/Graphics/SVG/1.1/DTD/svg11.dtd">
<svg width="100%" height="100%" viewBox="0 0 2048 2048" version="1.1" xmlns="http://www.w3.org/2000/svg" xmlns:xlink="http://www.w3.org/1999/xlink" xml:space="preserve" xmlns:serif="http://www.serif.com/" style="fill-rule:evenodd;clip-rule:evenodd;stroke-linecap:round;stroke-linejoin:round;stroke-miterlimit:1.5;">
    <g id="レイヤー5">
        <path d="M204.653,1.756C92.415,2.497 -0.526,91.172 0.076,204.502C0.637,309.844 102.832,297.84 104.229,408.127C107.058,631.463 108.151,1434.15 108.084,1546.63C108.031,1636.52 105.534,1635.3 205.748,1637.47C314.581,1639.83 312.306,1638.18 312.707,1542.39C313.175,1430.71 311.165,820.373 311.165,820.373C311.165,820.373 630.504,658.557 728.065,657.727C1019.6,655.249 1022.86,716.057 1022.28,925.026C1021.43,1230.25 494.629,1637.7 613.656,1637.58C724.964,1637.47 1229.95,1229.17 1229.95,1229.17C1229.95,1229.17 1301.69,1229.01 1332.52,1228.96C1435.94,1228.77 1432.55,1228.9 1433.31,1128.64C1435.65,820.973 1017.58,496.953 1017.58,496.953C1017.58,496.953 1226.03,336.919 1226.25,197.096C1226.44,75.032 1134.08,1.54 1024.82,3.411C920.232,5.203 816.071,2.534 818.533,100.549C821.104,202.911 1024.62,87.753 1025.06,205.298C1025.52,327.697 312.474,616.022 312.474,616.022C312.474,616.022 312.402,309.814 313.243,205.239C314.888,0.727 315.018,1.028 204.653,1.756Z" style="stroke:black;stroke-width:1px;"/>
    </g>
</svg>
