<?xml version="1.0" encoding="UTF-8" standalone="no"?>
<!DOCTYPE svg PUBLIC "-//W3C//DTD SVG 1.1//EN" "http://www.w3.org/Graphics/SVG/1.1/DTD/svg11.dtd">
<svg width="100%" height="100%" viewBox="0 0 2048 2048" version="1.1" xmlns="http://www.w3.org/2000/svg" xmlns:xlink="http://www.w3.org/1999/xlink" xml:space="preserve" xmlns:serif="http://www.serif.com/" style="fill-rule:evenodd;clip-rule:evenodd;stroke-linecap:round;stroke-linejoin:round;stroke-miterlimit:1.5;">
    <g id="レイヤー5">
        <path d="M1328.74,1025.23C1279.29,1024.73 1276.01,1127.1 1225.09,1229.93C1174.62,1331.89 1076.52,1434.32 1024.42,1435.65C953.291,1437.47 712.305,1436.34 712.305,1436.34C712.305,1436.34 926.392,405.417 927.405,200.618C927.9,100.578 925.442,-0.065 818.768,0.932C713.369,1.917 613.341,98.359 614.888,205.1C616.436,311.93 716.039,205.897 714.039,308.29C712.116,406.729 505.105,1435.1 505.105,1435.1C505.105,1435.1 318.872,1435.69 204.922,1434.89C93.96,1434.11 0.844,1434.22 1.019,1537.35C1.194,1641.19 92.509,1639.29 204.664,1638C409.471,1635.64 819.058,1642.18 1024.75,1640.15C1227.3,1638.16 1436.22,1229.68 1433.15,1141.85C1429.12,1026.41 1435.29,1026.3 1328.74,1025.23Z" style="stroke:black;stroke-width:1px;"/>
    </g>
</svg>
