<?xml version="1.0" encoding="UTF-8" standalone="no"?>
<!DOCTYPE svg PUBLIC "-//W3C//DTD SVG 1.1//EN" "http://www.w3.org/Graphics/SVG/1.1/DTD/svg11.dtd">
<svg width="100%" height="100%" viewBox="0 0 2048 2048" version="1.1" xmlns="http://www.w3.org/2000/svg" xmlns:xlink="http://www.w3.org/1999/xlink" xml:space="preserve" xmlns:serif="http://www.serif.com/" style="fill-rule:evenodd;clip-rule:evenodd;stroke-linecap:round;stroke-linejoin:round;stroke-miterlimit:1.5;">
    <g id="レイヤー5">
        <path d="M1846,1117.25C1845.63,1026.04 1843.76,1027.39 1743.33,1025.33C1685.77,1024.15 1552.11,1142.87 1434.2,1232.29C1326.84,1313.71 1205.53,1383.92 1150.28,1406.94C1105.41,1425.63 1141.26,1251.76 1186.42,1077.67C1208.93,990.923 1218.17,847.467 1218.17,847.467C1218.17,847.467 1744.78,410.643 1744.12,205.785C1743.79,102.289 1640.1,99.805 1539.58,101.209C1434.01,102.684 1126.72,104.443 1025.29,103.029C976.168,102.344 965.695,3.833 916.574,3.538C820.6,2.963 410.675,312.626 500.269,312.21C615.594,311.676 1295.32,316.939 1434.47,315.925C1636.35,314.454 1168.58,615.547 1168.58,615.547C1168.58,615.547 1115.1,516.336 1024.54,515.538C611.541,511.899 -5.823,1229.27 -1.945,1436.9C0.028,1542.52 103.818,1640.16 204.555,1639.2C408.626,1637.26 1005.93,1031.94 1005.93,1031.94C1005.93,1031.94 813.934,1645.14 1020.87,1642.17C1225.89,1639.22 1846.45,1231.49 1846,1117.25ZM1027.63,830.375C1027.63,830.375 813.785,1024.1 689.233,1129.41C573.61,1227.17 274.772,1510.48 218.14,1405.96C167.847,1313.13 406.833,1023.87 533.58,939.689C1133.29,541.38 1027.63,830.375 1027.63,830.375Z" style="stroke:black;stroke-width:1px;"/>
    </g>
</svg>
