<?xml version="1.0" encoding="UTF-8" standalone="no"?>
<!DOCTYPE svg PUBLIC "-//W3C//DTD SVG 1.1//EN" "http://www.w3.org/Graphics/SVG/1.1/DTD/svg11.dtd">
<svg width="100%" height="100%" viewBox="0 0 2048 2048" version="1.1" xmlns="http://www.w3.org/2000/svg" xmlns:xlink="http://www.w3.org/1999/xlink" xml:space="preserve" xmlns:serif="http://www.serif.com/" style="fill-rule:evenodd;clip-rule:evenodd;stroke-linecap:round;stroke-linejoin:round;stroke-miterlimit:1.5;">
    <g id="レイヤー5">
        <path d="M328.433,2.742C262.396,3.69 0.396,208.276 1.45,312.397C2.425,408.649 104.255,515.369 205.188,516.319C312.174,517.326 546.431,408.607 722.494,409.554C1227.56,412.271 1226.44,820.725 1226.44,820.725C1226.44,820.725 614.54,818.324 410.141,817.852C297.014,817.59 295.038,1025.58 410.872,1025.54C614.608,1025.47 1230.17,1025.58 1230.17,1025.58C1230.17,1025.58 1226.55,1434.37 819.342,1434.08C408.721,1433.79 411.09,1316.39 301.48,1317.46C205.35,1318.41 205.097,1322.78 203.218,1431.15C201.273,1543.23 417.741,1636.26 817.325,1635.05C1227.98,1633.82 1445.62,1102.83 1437.57,918.205C1433.49,824.75 1439.16,730.728 1439.16,730.728C1439.16,730.728 1542.48,895.394 1611.53,1028.21C1671.28,1143.13 1694.11,1228.73 1738.53,1229.54C1845.75,1231.48 1843.48,1226.07 1844.33,1124.56C1845.16,1024.25 1435.31,206.562 919.66,206.896C821.655,206.96 613.775,203.426 411.351,269.815C3.232,403.666 521.05,-0.022 328.433,2.742Z" style="stroke:black;stroke-width:1px;"/>
    </g>
</svg>
