<?xml version="1.0" encoding="UTF-8" standalone="no"?>
<!DOCTYPE svg PUBLIC "-//W3C//DTD SVG 1.1//EN" "http://www.w3.org/Graphics/SVG/1.1/DTD/svg11.dtd">
<svg width="100%" height="100%" viewBox="0 0 2048 2048" version="1.1" xmlns="http://www.w3.org/2000/svg" xmlns:xlink="http://www.w3.org/1999/xlink" xml:space="preserve" xmlns:serif="http://www.serif.com/" style="fill-rule:evenodd;clip-rule:evenodd;stroke-linecap:round;stroke-linejoin:round;stroke-miterlimit:1.5;">
    <g id="レイヤー5">
        <path d="M1528.07,1224.56C1633.55,1225.45 1638.89,1225.6 1641.25,1131.46C1643.92,1024.39 1644.97,0.758 1125.99,2.534C611.288,4.295 -2.254,409.573 1.302,819.871C6.695,1441.92 616.749,1641.11 1029.31,1640.48C1234.26,1640.16 1232.01,1632.88 1232.38,1435.61C1232.77,1228.29 1229.18,256.181 1229.18,256.181C1229.18,256.181 1344.65,452.63 1382.66,716.201C1412.59,923.73 1425.52,1223.69 1528.07,1224.56ZM1021.83,410.122C1019.41,611.871 1027.68,1135.64 1025.81,1226.67C1021.6,1432.33 1018.28,1434.13 919.006,1433.44C612.1,1431.28 207.877,1226.62 206.45,818.367C205.762,621.518 622.192,208.377 933.467,207.374C1028.44,207.068 1024.29,203.594 1021.83,410.122Z" style="stroke:black;stroke-width:1px;"/>
    </g>
</svg>
