<?xml version="1.0" encoding="UTF-8" standalone="no"?>
<!DOCTYPE svg PUBLIC "-//W3C//DTD SVG 1.1//EN" "http://www.w3.org/Graphics/SVG/1.1/DTD/svg11.dtd">
<svg width="100%" height="100%" viewBox="0 0 2048 2048" version="1.1" xmlns="http://www.w3.org/2000/svg" xmlns:xlink="http://www.w3.org/1999/xlink" xml:space="preserve" xmlns:serif="http://www.serif.com/" style="fill-rule:evenodd;clip-rule:evenodd;stroke-linecap:round;stroke-linejoin:round;stroke-miterlimit:1.5;">
    <g id="レイヤー5">
        <path d="M2.069,207.085C2.759,319.742 208.455,297.114 206.162,406.725C201.835,613.488 201.633,1227.04 203.906,1432.49C205.086,1539.1 202.822,1638.99 308.879,1638C409.437,1637.07 409.678,1548.68 409.789,1432.55C409.89,1326.57 411.585,1025.88 411.585,1025.88C411.585,1025.88 817.232,1437.52 1024.07,1435.57C1437.2,1431.67 1432.34,818.174 1432.34,818.174C1432.34,818.174 1485.99,899.509 1579.7,1021.51C1624.81,1080.24 1641.73,1231.14 1744.9,1230.05C1844.27,1228.99 1845.45,1226.82 1844.26,1127.59C1841.7,913.896 1229.55,205.301 1229.55,205.301C1229.55,205.301 1348.32,205.393 1434.06,205.135C1542.66,204.807 1637.97,207.681 1639.41,112.986C1641.1,1.201 1536.92,0.673 1435.33,0.692C1331.31,0.711 1134.3,2.621 1026.68,2.717C924.502,2.808 820.913,91.672 818.327,204.091C815.801,313.885 1230.63,410.567 1232.32,821.615C1233.14,1022.65 1234.53,1185.75 1026.27,1183.63C826.508,1181.59 409.874,757.76 409.874,757.76C409.874,757.76 411.633,345.239 410.643,206.599C409.854,96.222 405.524,-0.326 301.527,1.215C205.373,2.641 1.427,102.149 2.069,207.085Z" style="stroke:black;stroke-width:1px;"/>
    </g>
</svg>
