<?xml version="1.0" encoding="UTF-8" standalone="no"?>
<!DOCTYPE svg PUBLIC "-//W3C//DTD SVG 1.1//EN" "http://www.w3.org/Graphics/SVG/1.1/DTD/svg11.dtd">
<svg width="100%" height="100%" viewBox="0 0 2048 2048" version="1.1" xmlns="http://www.w3.org/2000/svg" xmlns:xlink="http://www.w3.org/1999/xlink" xml:space="preserve" xmlns:serif="http://www.serif.com/" style="fill-rule:evenodd;clip-rule:evenodd;stroke-linecap:round;stroke-linejoin:round;stroke-miterlimit:1.5;">
    <g id="レイヤー5">
        <path d="M1637.62,1126.63C1637.56,1022.19 1433.81,612.646 1334.74,614.928C1270.88,616.399 1140.58,614.742 1140.58,614.742C1140.58,614.742 1139.93,204.161 1140.41,107.99C1140.93,3.553 1140.58,3.291 1024.91,1.795C620.701,-3.433 -4.289,402.592 -0.598,915.172C3.034,1419.54 613.058,1637.07 1024.4,1637.4C1136.24,1637.5 1138.19,1636.97 1138.69,1540.33C1138.87,1506.66 1134.15,819.599 1134.15,819.599C1134.15,819.599 1189.21,821.458 1227.83,821.11C1333.78,820.157 1336.13,914.529 1396.52,1023.55C1452.36,1124.36 1491.59,1229.11 1543.86,1228.46C1636.62,1227.3 1637.69,1226.57 1637.62,1126.63ZM932.497,238.986C929.654,351.233 932.914,614.649 932.914,614.649C932.914,614.649 790.918,612.878 729.642,613.238C667.076,613.606 503.508,819.421 617.505,819.145C663.828,819.033 936.613,819.837 936.613,819.837C936.613,819.837 938.543,1225.82 937.222,1388.36C936.262,1506.56 230.627,1354.02 232.334,923.391C234.084,481.644 935.919,103.926 932.497,238.986Z" style="stroke:black;stroke-width:1px;"/>
    </g>
</svg>
