<?xml version="1.0" encoding="UTF-8" standalone="no"?>
<!DOCTYPE svg PUBLIC "-//W3C//DTD SVG 1.1//EN" "http://www.w3.org/Graphics/SVG/1.1/DTD/svg11.dtd">
<svg width="100%" height="100%" viewBox="0 0 2048 2048" version="1.1" xmlns="http://www.w3.org/2000/svg" xmlns:xlink="http://www.w3.org/1999/xlink" xml:space="preserve" xmlns:serif="http://www.serif.com/" style="fill-rule:evenodd;clip-rule:evenodd;stroke-linecap:round;stroke-linejoin:round;stroke-miterlimit:1.5;">
    <g id="レイヤー5">
        <path d="M96.825,201.751C97.193,313.83 201.793,282.941 193.216,331.61C154.743,549.915 39.335,1318.05 4.999,1531.67C-1.818,1574.09 7.154,1636.27 80.154,1636.07C207.116,1635.71 823.017,1025.33 1028.74,816.633C1230.67,611.781 1234.12,312.721 1234.12,312.721C1234.12,312.721 1543.1,1.345 1540.33,517.513C1538.66,828.054 413.728,1635.89 519.139,1636.82C817.802,1639.45 1541.09,908.977 1541.09,908.977C1541.09,908.977 1603.41,959.532 1638.77,1027.39C1685.61,1117.3 1700.78,1227.56 1740.82,1228.09C1844.83,1229.46 1844.46,1229.82 1845.59,1128.16C1849.04,819.317 1842.69,6.609 1542.44,2.177C1321.34,-1.086 1228.47,136.814 1228.47,136.814C1228.47,136.814 1124.44,-3.854 918.958,-0.033C825.236,1.71 536.564,311.99 615.855,310.352C722.729,308.145 732.777,206.334 822.305,204.728C920.935,202.959 1027.18,304.89 1027.24,405.861C1027.3,507.2 923.787,612.581 813.566,722.635C675.867,860.124 396.184,1139.88 297.605,1231.37C226.886,1297.01 377.348,498.715 408.562,299.112C424.693,195.961 361.76,-0.318 313.051,0.817C258.635,2.086 96.454,88.956 96.825,201.751Z" style="stroke:black;stroke-width:1px;"/>
    </g>
</svg>
