<?xml version="1.0" encoding="UTF-8" standalone="no"?>
<!DOCTYPE svg PUBLIC "-//W3C//DTD SVG 1.1//EN" "http://www.w3.org/Graphics/SVG/1.1/DTD/svg11.dtd">
<svg width="100%" height="100%" viewBox="0 0 2048 2048" version="1.1" xmlns="http://www.w3.org/2000/svg" xmlns:xlink="http://www.w3.org/1999/xlink" xml:space="preserve" xmlns:serif="http://www.serif.com/" style="fill-rule:evenodd;clip-rule:evenodd;stroke-linecap:round;stroke-linejoin:round;stroke-miterlimit:1.5;">
    <g id="レイヤー5">
        <path d="M0.16,1228.75C1.072,1429.79 94.174,1637.94 208.826,1638.23C309.424,1638.47 511.604,1638.28 615.783,1638.96C727.436,1639.7 821.115,1636.91 820.542,1535.37C819.986,1436.79 711.854,1433.34 614.552,1433.4C561.705,1433.43 480.746,1432.54 409.274,1433.16C308.3,1434.04 205.547,1337.44 207.85,1226.72C212.046,1025.02 203.068,413.865 207.094,307.361C210.856,207.829 306.892,418.575 404.792,608.96C514.423,822.161 820.724,1637.24 1030.9,1636.8C1232.78,1636.38 1296.25,1639.93 1295.27,1525.18C1294.56,1441.98 1111.12,1501.85 968.592,1226.89C857.788,1013.12 560.664,413.438 560.664,413.438C560.664,413.438 636.327,80.206 822.491,413.095C1043.04,807.473 1234.59,1642.88 1528.15,1639.58C1742.13,1637.17 1845.23,1229.54 1843.85,1132.96C1842.29,1024.54 1845.22,1021.03 1749.81,1023.06C1638.22,1025.43 1638.52,1533.97 1439.55,1232.4C1319.26,1050.08 1023.31,0.969 723.569,0.483C501.967,0.124 415.5,207.213 415.5,207.213C415.5,207.213 321.285,4.765 204.596,3.3C104.964,2.049 0.529,88.217 1.158,201.772C2.309,409.387 -0.776,1022.41 0.16,1228.75Z" style="stroke:black;stroke-width:1px;"/>
    </g>
</svg>
