<?xml version="1.0" encoding="UTF-8" standalone="no"?>
<!DOCTYPE svg PUBLIC "-//W3C//DTD SVG 1.1//EN" "http://www.w3.org/Graphics/SVG/1.1/DTD/svg11.dtd">
<svg width="100%" height="100%" viewBox="0 0 2048 2048" version="1.1" xmlns="http://www.w3.org/2000/svg" xmlns:xlink="http://www.w3.org/1999/xlink" xml:space="preserve" xmlns:serif="http://www.serif.com/" style="fill-rule:evenodd;clip-rule:evenodd;stroke-linecap:round;stroke-linejoin:round;stroke-miterlimit:1.5;">
    <g id="レイヤー5">
        <path d="M1435.15,1131.49C1435.03,1024.94 1140.46,612.226 822.048,610.15C509.923,608.115 362.46,674.867 362.46,674.867C362.46,674.867 409.361,205.077 817.177,207.496C1024.04,208.723 1141.28,407.46 1230.85,406.697C1347.3,405.704 1346.54,405.929 1345.15,307.675C1343.66,202.632 1232.2,-0.769 820.105,-0.649C409.446,-0.529 248.008,163.446 202.937,405.573C155.733,659.158 57.736,1230.9 26.284,1433.54C7.326,1555.68 3.99,1638.4 102.645,1638.22C206.239,1638.03 214.579,1510.74 227.96,1435.28C249.573,1313.4 313.921,936.82 313.921,936.82C313.921,936.82 621.496,817.186 820.681,818.345C945.725,819.073 1019.81,917.112 1022.8,1024.71C1028.32,1223.45 612.78,1434.89 614.435,1544.37C615.836,1637.07 617.395,1638.28 717.555,1637.46C768.078,1637.04 935.742,1535.74 1025.02,1434.57C1116.81,1330.53 1179.79,1230.43 1179.79,1230.43C1179.79,1230.43 1276.12,1224.94 1331.03,1225.86C1437.38,1227.65 1435.24,1225.16 1435.15,1131.49Z" style="stroke:black;stroke-width:1px;"/>
    </g>
</svg>
