<?xml version="1.0" encoding="UTF-8" standalone="no"?>
<!DOCTYPE svg PUBLIC "-//W3C//DTD SVG 1.1//EN" "http://www.w3.org/Graphics/SVG/1.1/DTD/svg11.dtd">
<svg width="100%" height="100%" viewBox="0 0 2048 2048" version="1.1" xmlns="http://www.w3.org/2000/svg" xmlns:xlink="http://www.w3.org/1999/xlink" xml:space="preserve" xmlns:serif="http://www.serif.com/" style="fill-rule:evenodd;clip-rule:evenodd;stroke-linecap:round;stroke-linejoin:round;stroke-miterlimit:1.5;">
    <g id="レイヤー5">
        <path d="M102.204,203.658C104.288,259.969 312.554,274.194 313.226,316.119C317.931,609.696 -6.855,818.95 -2.112,1124.6C2.664,1432.39 413.987,1640.96 821.761,1637.24C1239.07,1633.44 1536.85,1021.76 1536.85,1021.76C1536.85,1021.76 1583.98,1059.26 1639.45,1116.05C1673.59,1151 1712.51,1226.14 1754.92,1226.4C1842.47,1226.92 1844.23,1227.5 1843.12,1129.98C1839.61,818.925 1435.48,-6.796 1026.47,-2.529C819.104,-0.365 719.848,205.501 716.076,407.387C712.19,615.365 717.621,1433.55 717.621,1433.55C717.621,1433.55 208.865,1325.66 205.573,1120.97C200.81,824.848 514.553,610.965 515.801,314.831C516.257,206.579 504.724,-1.225 409.58,0.756C306.441,2.903 100.043,145.247 102.204,203.658ZM925.201,406.873C921.119,3.779 1332.12,212.48 1335.01,816.632C1336.95,1221.29 928.63,1434.08 928.63,1434.08C928.63,1434.08 927.194,603.677 925.201,406.873Z" style="stroke:black;stroke-width:1px;"/>
    </g>
</svg>
