<?xml version="1.0" encoding="UTF-8" standalone="no"?>
<!DOCTYPE svg PUBLIC "-//W3C//DTD SVG 1.1//EN" "http://www.w3.org/Graphics/SVG/1.1/DTD/svg11.dtd">
<svg width="100%" height="100%" viewBox="0 0 2048 2048" version="1.1" xmlns="http://www.w3.org/2000/svg" xmlns:xlink="http://www.w3.org/1999/xlink" xml:space="preserve" xmlns:serif="http://www.serif.com/" style="fill-rule:evenodd;clip-rule:evenodd;stroke-linecap:round;stroke-linejoin:round;stroke-miterlimit:1.5;">
    <g id="レイヤー5">
        <path d="M306.056,0.964C201.654,0.879 1.998,100.949 0.956,206.424C-0.181,321.511 204.515,205.571 204.259,311.171C204.022,408.792 2.524,716.368 1.934,822.165C1.291,937.183 5.121,935.764 103.808,932.826C159.302,931.174 186.697,720.437 340.389,525.331C471.42,358.993 820.033,39.55 1019.58,306.678C1109.67,427.279 1023.44,612.349 920.001,615.151C820.532,617.846 704.519,613.76 612.431,613.142C502.788,612.408 403.874,706.7 406.446,819.024C409.004,930.698 414.135,1117.99 411.123,1228.76C408.31,1332.2 95.704,1638.04 208.045,1636.38C326.678,1634.63 614.604,1347.02 615.203,1224.89C615.676,1128.39 614.87,1025.08 613.899,926.704C612.831,818.601 614.125,818.725 713.244,817.985C818.539,817.198 818.995,818.945 918.662,817.685C1022.02,816.379 1151.63,615.942 1151.63,615.942C1151.63,615.942 1192.34,751.88 1227.73,901.768C1264.85,1058.99 1283.67,1226.45 1335.29,1227.67C1432.32,1229.95 1436.44,1229.34 1436.41,1136.25C1436.29,692.169 1317.75,313.861 1151.44,128.208C1045.8,10.294 899.301,1.575 820.971,1.992C615.448,3.085 409.531,203.998 409.531,203.998C409.531,203.998 411.707,1.051 306.056,0.964Z" style="stroke:black;stroke-width:1px;"/>
    </g>
</svg>
