<?xml version="1.0" encoding="UTF-8" standalone="no"?>
<!DOCTYPE svg PUBLIC "-//W3C//DTD SVG 1.1//EN" "http://www.w3.org/Graphics/SVG/1.1/DTD/svg11.dtd">
<svg width="100%" height="100%" viewBox="0 0 2048 2048" version="1.1" xmlns="http://www.w3.org/2000/svg" xmlns:xlink="http://www.w3.org/1999/xlink" xml:space="preserve" xmlns:serif="http://www.serif.com/" style="fill-rule:evenodd;clip-rule:evenodd;stroke-linecap:round;stroke-linejoin:round;stroke-miterlimit:1.5;">
    <g id="レイヤー5">
        <path d="M-0.35,1023.47C-0.521,1440.68 293.176,1637.5 611.437,1636.71C1023.71,1635.7 1432.95,1023.94 1432.95,1023.94C1432.95,1023.94 1436.72,1229.96 1539.05,1229.47C1640.12,1228.99 1640.47,1227.28 1640.91,1133.18C1643.31,619.742 1225.83,-5.177 822.433,1.726C213.093,12.152 -0.183,614.633 -0.35,1023.47ZM820.549,203.939C1127.67,206.721 1226.73,612.845 1228.13,819.53C1229.46,1016.3 819.094,1433.37 618.604,1434.14C410.594,1434.94 202.919,1224.24 202.796,1031.25C202.53,615.892 513.9,201.161 820.549,203.939Z" style="stroke:black;stroke-width:1px;"/>
    </g>
</svg>
