<?xml version="1.0" encoding="UTF-8" standalone="no"?>
<!DOCTYPE svg PUBLIC "-//W3C//DTD SVG 1.1//EN" "http://www.w3.org/Graphics/SVG/1.1/DTD/svg11.dtd">
<svg width="100%" height="100%" viewBox="0 0 2048 2048" version="1.1" xmlns="http://www.w3.org/2000/svg" xmlns:xlink="http://www.w3.org/1999/xlink" xml:space="preserve" xmlns:serif="http://www.serif.com/" style="fill-rule:evenodd;clip-rule:evenodd;stroke-linecap:round;stroke-linejoin:round;stroke-miterlimit:1.5;">
    <g id="レイヤー5">
        <path d="M1024.03,1638.35C911.522,1638.53 915.098,1545.81 913.866,1436.23C911.572,1232.1 921.439,610.525 921.614,407.433C921.706,300.132 819.445,207.973 615.213,206.138C415.092,204.339 307.653,414.266 204.03,412.486C91.817,410.559 2.694,411.41 2.928,352.72C3.2,284.271 409.563,0.052 617.117,0.687C1025.99,1.937 1138.84,202.398 1141.17,408.723C1143.48,611.903 1140.48,816.951 1140.48,816.951C1140.48,816.951 1435.24,1022.26 1434.69,1128.06C1434.13,1233.06 1435.49,1231.4 1332.87,1229.44C1308.81,1228.98 1270.09,1145.39 1232.23,1096.84C1191.54,1044.65 1143.13,1023.04 1143.13,1023.04C1143.13,1023.04 1138.71,1327.79 1137.16,1433.43C1135.44,1551.53 1137.27,1638.16 1024.03,1638.35Z" style="stroke:black;stroke-width:1px;"/>
    </g>
</svg>
