<?xml version="1.0" encoding="UTF-8" standalone="no"?>
<!DOCTYPE svg PUBLIC "-//W3C//DTD SVG 1.1//EN" "http://www.w3.org/Graphics/SVG/1.1/DTD/svg11.dtd">
<svg width="100%" height="100%" viewBox="0 0 2048 2048" version="1.1" xmlns="http://www.w3.org/2000/svg" xmlns:xlink="http://www.w3.org/1999/xlink" xml:space="preserve" xmlns:serif="http://www.serif.com/" style="fill-rule:evenodd;clip-rule:evenodd;stroke-linecap:round;stroke-linejoin:round;stroke-miterlimit:1.5;">
    <g id="レイヤー5">
        <path d="M610.789,412.056C610.789,412.056 619.864,1021.85 615.572,1129.96C611.955,1221.08 614.625,1225.75 716.236,1226.3C1230.93,1229.09 1439.79,617.984 1439.79,617.984C1439.79,617.984 1432.43,1228.83 1539.83,1228.86C1639.32,1228.89 1638.09,1228.66 1638.55,1143.7C1642.53,409.602 1440.78,-2.925 1025.4,-4.251C616.152,-5.558 0.998,818.628 1.621,1224.43C1.925,1423.08 198.543,1634.78 409.774,1637.95C620.231,1641.11 1227.78,1481.01 1227.51,1383.28C1227.23,1278.87 1217.22,1237.62 1024.58,1289.38C840.442,1338.85 518.099,1434.39 409.6,1433.27C314.58,1432.29 204.884,1434.1 203.558,1229.07C202.694,1095.45 374.65,670.835 610.789,412.056ZM819.428,1023.35C1021.21,1029.41 1229.72,613.194 1230.45,409.673C1230.81,310.79 1233.13,204.902 1025.53,204.449C958.325,204.303 882.925,256.708 817.607,294.005L819.428,1023.35Z" style="stroke:black;stroke-width:1px;"/>
    </g>
</svg>
