<?xml version="1.0" encoding="UTF-8" standalone="no"?>
<!DOCTYPE svg PUBLIC "-//W3C//DTD SVG 1.1//EN" "http://www.w3.org/Graphics/SVG/1.1/DTD/svg11.dtd">
<svg width="100%" height="100%" viewBox="0 0 2048 2048" version="1.1" xmlns="http://www.w3.org/2000/svg" xmlns:xlink="http://www.w3.org/1999/xlink" xml:space="preserve" xmlns:serif="http://www.serif.com/" style="fill-rule:evenodd;clip-rule:evenodd;stroke-linecap:round;stroke-linejoin:round;stroke-miterlimit:1.5;">
    <g id="レイヤー5">
        <path d="M311.904,-0.476C206.725,-0.585 3.088,99.934 1.615,201.539C-0.007,313.475 204.821,202.008 205.685,302.64C206.101,351.04 137.144,503.882 90.15,682.282C36.871,884.544 4.528,1117.11 3.395,1221.24C-1.074,1631.9 411.583,1632.18 615.224,1634.65C818.608,1637.11 1003.09,1457.05 1026.21,1432.78C1119.48,1334.86 819.512,1431.23 612.26,1433.5C415.749,1435.65 295.522,1398.06 236.53,1294.19C144.037,1131.33 270.727,819.825 270.727,819.825C270.727,819.825 819.479,822.637 1020.21,821.095C1224.01,819.53 1230.76,1231.12 1337.54,1229.73C1432.83,1228.49 1435.84,1228.29 1433.31,1132.09C1430.51,1025.7 1229.4,615.73 1023.63,615.099C816.633,614.464 319.324,616.539 319.324,616.539C319.324,616.539 408.427,408.076 408.778,305.927C409.136,201.817 409.099,-0.375 311.904,-0.476Z" style="stroke:black;stroke-width:1px;"/>
    </g>
</svg>
