<?xml version="1.0" encoding="UTF-8" standalone="no"?>
<!DOCTYPE svg PUBLIC "-//W3C//DTD SVG 1.1//EN" "http://www.w3.org/Graphics/SVG/1.1/DTD/svg11.dtd">
<svg width="100%" height="100%" viewBox="0 0 2048 2048" version="1.1" xmlns="http://www.w3.org/2000/svg" xmlns:xlink="http://www.w3.org/1999/xlink" xml:space="preserve" xmlns:serif="http://www.serif.com/" style="fill-rule:evenodd;clip-rule:evenodd;stroke-linecap:round;stroke-linejoin:round;stroke-miterlimit:1.5;">
    <g id="レイヤー5">
        <path d="M1538.89,1226.61C1639.41,1225.88 1639.93,1225.37 1639.34,1128.86C1637.47,822.078 1641.25,-2.721 1227.75,1.849C825.713,6.292 412.035,614.793 507.305,615.15C614.838,615.554 820.78,256.926 1024.21,253.717C1137.32,251.934 1224.47,308.931 1226.57,508.934C1229.73,810.798 159.989,1435.64 207.734,1229.83C255.969,1021.91 374.53,411.866 411.585,207.134C428.397,114.247 409.629,1.799 312.045,2.364C254.548,2.697 217.88,130.387 204.392,205.961C168.373,407.772 0.599,1229.19 1.836,1434.06C3.083,1640.64 4.088,1640.45 103.726,1640.65C153.49,1640.76 491.724,1423.12 818.949,1225.38C1112.4,1048.06 1431.54,765.951 1431.54,765.951C1431.54,765.951 1435.26,956.929 1434.8,1019.27C1433.97,1131.04 1475.18,1227.08 1538.89,1226.61Z" style="stroke:black;stroke-width:1px;"/>
    </g>
</svg>
