<?xml version="1.0" encoding="UTF-8" standalone="no"?>
<!DOCTYPE svg PUBLIC "-//W3C//DTD SVG 1.1//EN" "http://www.w3.org/Graphics/SVG/1.1/DTD/svg11.dtd">
<svg width="100%" height="100%" viewBox="0 0 2048 2048" version="1.1" xmlns="http://www.w3.org/2000/svg" xmlns:xlink="http://www.w3.org/1999/xlink" xml:space="preserve" xmlns:serif="http://www.serif.com/" style="fill-rule:evenodd;clip-rule:evenodd;stroke-linecap:round;stroke-linejoin:round;stroke-miterlimit:1.5;">
    <g id="レイヤー5">
        <path d="M1542.81,1228.02C1639.76,1228.72 1641.95,1230.39 1640.69,1128.34C1638.24,929.139 1329.86,410.649 1024.2,409.769C818.917,409.177 621.548,494.19 616.886,611.987C608.735,817.965 614.735,1027.01 615.258,1229.93C615.549,1342.57 512.023,1381.06 408.374,1380.69C295.972,1380.3 198.712,1226.88 203.72,1029.01C213.873,627.823 608.517,256.633 818.082,253.422C1016.48,250.382 1131.2,309.156 1229.9,309.408C1326.63,309.654 1434.39,198.717 1436.25,105.395C1438.29,2.915 1226.13,-4.596 1015.26,-3.643C412.645,-0.92 4.17,616.882 2.182,1014.01C0.569,1336.34 201.357,1640.43 416.385,1637.68C615,1635.14 818.707,1431.84 822.467,1231.16C826.329,1025.07 830.151,906.422 827.77,830.408C817.592,505.466 1229.64,638.618 1231.11,1022.27C1231.9,1229.11 712.647,1642.6 823.44,1641.55C1231.41,1637.67 1436.39,1143.78 1436.39,1143.78C1436.39,1143.78 1506.61,1227.76 1542.81,1228.02Z" style="stroke:black;stroke-width:1px;"/>
    </g>
</svg>
