<?xml version="1.0" encoding="UTF-8" standalone="no"?>
<!DOCTYPE svg PUBLIC "-//W3C//DTD SVG 1.1//EN" "http://www.w3.org/Graphics/SVG/1.1/DTD/svg11.dtd">
<svg width="100%" height="100%" viewBox="0 0 2048 2048" version="1.1" xmlns="http://www.w3.org/2000/svg" xmlns:xlink="http://www.w3.org/1999/xlink" xml:space="preserve" xmlns:serif="http://www.serif.com/" style="fill-rule:evenodd;clip-rule:evenodd;stroke-linecap:round;stroke-linejoin:round;stroke-miterlimit:1.5;">
    <g id="レイヤー5">
        <path d="M4.294,1233.61C0.334,1632.47 407.84,1642.77 615.251,1640.55C821.492,1638.33 1023.9,1432.3 1023.35,1231.24C1022.77,1022.8 1026.53,206.979 1226.06,206.468C1332.27,206.195 1435.27,302.314 1435.89,407.573C1436.57,523.174 1332.55,615.179 1331.74,817.262C1330.9,1024.33 1436.17,1234.79 1537.55,1229.52C1640.36,1224.16 1638.84,1229.32 1640.17,1122.61C1641.4,1024.72 1522.39,933.353 1521.86,822.985C1521.29,704.971 1635.42,611.979 1637.88,416.818C1640.58,202.051 1435.67,3.117 1227.81,2.039C817.467,-0.088 8.409,819.122 4.294,1233.61ZM893.527,316.565C824.834,411.038 817.766,918.914 816.288,1222.74C815.691,1345.29 730.275,1429.43 623.276,1431.19C416.28,1434.59 199.489,1427.52 202.964,1223.77C209.836,820.914 979.27,198.645 893.527,316.565Z" style="stroke:black;stroke-width:1px;"/>
    </g>
</svg>
