<?xml version="1.0" encoding="UTF-8" standalone="no"?>
<!DOCTYPE svg PUBLIC "-//W3C//DTD SVG 1.1//EN" "http://www.w3.org/Graphics/SVG/1.1/DTD/svg11.dtd">
<svg width="100%" height="100%" viewBox="0 0 2048 2048" version="1.1" xmlns="http://www.w3.org/2000/svg" xmlns:xlink="http://www.w3.org/1999/xlink" xml:space="preserve" xmlns:serif="http://www.serif.com/" style="fill-rule:evenodd;clip-rule:evenodd;stroke-linecap:round;stroke-linejoin:round;stroke-miterlimit:1.5;">
    <g id="レイヤー5">
        <path d="M109.304,1025.78C0.935,1026 2.094,1024.33 1.359,1121.02C0.554,1226.77 211.053,1638.45 316.671,1638.63C404.642,1638.77 615.642,1639 614.281,1531.52C613.876,1499.58 412.556,1485.72 411.833,1430.24C411.183,1380.33 484.297,1218.76 616.266,1073.77C738.471,939.518 920.259,819.322 920.259,819.322C920.259,819.322 926.681,1232.21 926.544,1431.86C926.474,1534.05 1024.53,1640.35 1227.63,1639.3C1339.8,1638.71 1640.44,1239.53 1638.9,1131.78C1637.36,1023.9 1636.6,1021.6 1542,1022.96C1430.82,1024.55 1126.19,1634.74 1128.4,1328.38C1129.88,1122.29 1139.85,570.982 1139.23,319.853C1138.8,144.033 918.952,4.196 721.312,3.259C509.883,2.256 105.734,306.066 205.814,306.149C311.395,306.236 518.709,201.754 718.89,204.125C819.463,205.316 924.198,303.084 923.08,407.329C921.991,508.847 927.826,520.27 927.826,520.27C927.826,520.27 713.438,725.001 614.112,821.299C511.235,921.04 304.343,1224.02 304.343,1224.02C304.343,1224.02 201.683,1025.6 109.304,1025.78Z" style="stroke:black;stroke-width:1px;"/>
    </g>
</svg>
