<?xml version="1.0" encoding="UTF-8" standalone="no"?>
<!DOCTYPE svg PUBLIC "-//W3C//DTD SVG 1.1//EN" "http://www.w3.org/Graphics/SVG/1.1/DTD/svg11.dtd">
<svg width="100%" height="100%" viewBox="0 0 2048 2048" version="1.1" xmlns="http://www.w3.org/2000/svg" xmlns:xlink="http://www.w3.org/1999/xlink" xml:space="preserve" xmlns:serif="http://www.serif.com/" style="fill-rule:evenodd;clip-rule:evenodd;stroke-linecap:round;stroke-linejoin:round;stroke-miterlimit:1.5;">
    <g id="レイヤー5">
        <path d="M101.823,1026.46C101.823,1026.46 2.52,1021.93 1.898,1125.91C0.061,1432.9 411.841,1633.86 828.836,1643.93C1065.8,1649.65 1434.88,1229.68 1434.88,1229.68C1434.88,1229.68 1488.61,1230.63 1538.98,1230.84C1640.15,1231.25 1639.14,1230.52 1637.54,1125.25C1629.81,616.952 1435.96,0.656 822.647,1.104C115.657,1.62 101.823,1026.46 101.823,1026.46ZM825.79,207.85C1225.27,209.864 1227.65,608.136 1229.24,824.424C1232.2,1229.31 1025.3,1435.3 820.253,1436.33C716.073,1436.85 595.347,1366.28 595.347,1366.28C595.347,1366.28 934.83,1018.59 936.38,921.641C938.043,817.673 937.311,817.588 820.478,818.673C754.469,819.286 697.613,819.491 698.105,935.285C698.478,1023.15 429.963,1214.45 429.963,1214.45C429.963,1214.45 323.239,1110.17 323.909,822.942C324.4,612.482 468.855,206.051 825.79,207.85Z" style="stroke:black;stroke-width:1px;"/>
    </g>
</svg>
