<?xml version="1.0" encoding="UTF-8" standalone="no"?>
<!DOCTYPE svg PUBLIC "-//W3C//DTD SVG 1.1//EN" "http://www.w3.org/Graphics/SVG/1.1/DTD/svg11.dtd">
<svg width="100%" height="100%" viewBox="0 0 2048 2048" version="1.1" xmlns="http://www.w3.org/2000/svg" xmlns:xlink="http://www.w3.org/1999/xlink" xml:space="preserve" xmlns:serif="http://www.serif.com/" style="fill-rule:evenodd;clip-rule:evenodd;stroke-linecap:round;stroke-linejoin:round;stroke-miterlimit:1.5;">
    <g id="レイヤー5">
        <path d="M94.889,1025.11C-3.758,1026.99 -4.005,1026.65 0.717,1126.96C5.436,1227.18 99.388,1631 306.03,1633.98C520.463,1637.08 1026.84,1638.15 1321.82,1638.39C1535.33,1638.57 1638.79,1232.02 1638.42,1137.56C1637.97,1023.31 1641.64,1023.79 1540.08,1024.82C1485.11,1025.38 1434.1,1133.65 1434.1,1133.65C1434.1,1133.65 1361.56,1013.21 1243.09,809.302C1059.98,494.156 813.857,8.406 612.629,6.187C204.019,1.681 100.123,412.008 100.666,610.036C100.97,720.956 97.945,821.01 206.138,821.016C314.748,821.022 315.623,712.986 314.479,614.505C312.059,406.052 409.463,197.257 618.735,203.388C717.422,206.279 872.17,515.346 1024.21,820.298C1178.46,1129.68 1328.53,1434.97 1220.25,1431.67C1026.5,1425.78 613.392,1433.96 413.969,1433.06C207.888,1432.13 198.322,1023.14 94.889,1025.11Z" style="stroke:black;stroke-width:1px;"/>
    </g>
</svg>
