<?xml version="1.0" encoding="UTF-8" standalone="no"?>
<!DOCTYPE svg PUBLIC "-//W3C//DTD SVG 1.1//EN" "http://www.w3.org/Graphics/SVG/1.1/DTD/svg11.dtd">
<svg width="100%" height="100%" viewBox="0 0 2048 2048" version="1.1" xmlns="http://www.w3.org/2000/svg" xmlns:xlink="http://www.w3.org/1999/xlink" xml:space="preserve" xmlns:serif="http://www.serif.com/" style="fill-rule:evenodd;clip-rule:evenodd;stroke-linecap:round;stroke-linejoin:round;stroke-miterlimit:1.5;">
    <g id="レイヤー5">
        <path d="M0.651,1130.64C2.205,1228.67 1.199,1227.15 96.896,1229.36C207.253,1231.9 206.029,200.91 411.712,201.823C513.796,202.275 612.946,317.158 613.758,412.153C613.906,429.383 615.457,463.971 615.457,463.971C615.457,463.971 323.834,479.396 323.724,564.97C323.59,669.506 612.683,662.267 612.683,662.267L615.016,818.288C615.016,818.288 325.849,817.53 325.898,921.036C325.946,1021.39 613.005,1022.27 613.005,1022.27L614.466,1434.28C614.466,1434.28 617.467,1637.77 715.985,1639.92C823.731,1642.29 819.701,1433.6 819.701,1433.6C819.701,1433.6 1024.63,1637.57 1230.29,1639.15C1435.54,1640.73 1639.14,1231.47 1639.14,1231.47C1639.14,1231.47 1696.09,1230.63 1750.37,1229.71C1843.95,1228.14 1843.55,1228.06 1843.14,1131.58C1842.69,1024.58 1431.49,818.377 1228.98,819.03C1027.39,819.68 820.916,1024.87 820.916,1024.87C820.916,1024.87 820.832,611.198 820.989,411.29C821.153,203.759 721.6,3.126 409.645,1.297C6.442,-1.067 -0.988,1027.31 0.651,1130.64ZM1227.91,1021.42C1325.89,1020.98 1436.64,1126.84 1436.7,1228.34C1436.75,1333.28 1329.08,1429.78 1230.92,1430.27C1027.49,1431.26 822.848,1244 822.848,1244C822.848,1244 1028.27,1022.31 1227.91,1021.42Z" style="stroke:black;stroke-width:1px;"/>
    </g>
</svg>
