<?xml version="1.0" encoding="UTF-8" standalone="no"?>
<!DOCTYPE svg PUBLIC "-//W3C//DTD SVG 1.1//EN" "http://www.w3.org/Graphics/SVG/1.1/DTD/svg11.dtd">
<svg width="100%" height="100%" viewBox="0 0 2048 2048" version="1.1" xmlns="http://www.w3.org/2000/svg" xmlns:xlink="http://www.w3.org/1999/xlink" xml:space="preserve" xmlns:serif="http://www.serif.com/" style="fill-rule:evenodd;clip-rule:evenodd;stroke-linecap:round;stroke-linejoin:round;stroke-miterlimit:1.5;">
    <g id="レイヤー5">
        <path d="M94.44,1022.81C4.596,1022.63 2.883,1024.62 1.323,1117.21C-0.507,1225.82 206.142,1640.52 302.976,1640.66C414.509,1640.83 613.491,1538.7 615.379,1434.11C619.026,1232.12 617.088,612.283 614.497,411.73C613.084,302.43 815.36,203.456 919.257,204.185C1534.1,208.497 1440.99,1228.84 1537.25,1228.07C1638.55,1227.25 1639.87,1224.3 1639.31,1122.65C1635.4,408.739 1434.36,4.188 919.885,0.411C619.224,-1.797 406.96,206.144 408.127,413.09C409.273,616.365 412.551,1296.73 409.705,1429.06C407.814,1517.03 307.587,1332.38 236.625,1229.76C167.171,1129.31 129.225,1022.88 94.44,1022.81Z" style="stroke:black;stroke-width:1px;"/>
    </g>
</svg>
