<?xml version="1.0" encoding="UTF-8" standalone="no"?>
<!DOCTYPE svg PUBLIC "-//W3C//DTD SVG 1.1//EN" "http://www.w3.org/Graphics/SVG/1.1/DTD/svg11.dtd">
<svg width="100%" height="100%" viewBox="0 0 2048 2048" version="1.1" xmlns="http://www.w3.org/2000/svg" xmlns:xlink="http://www.w3.org/1999/xlink" xml:space="preserve" xmlns:serif="http://www.serif.com/" style="fill-rule:evenodd;clip-rule:evenodd;stroke-linecap:round;stroke-linejoin:round;stroke-miterlimit:1.5;">
    <g id="レイヤー5">
        <path d="M103.7,1024.69C-0.186,1026.31 1.173,1024.26 1.659,1129.01C2.128,1230.43 219.904,1637.75 614.532,1637.4C1223.27,1636.86 1641.95,1204.11 1640.52,1142.77C1637.67,1020.78 1638.29,1021.64 1544.36,1022.8C1487.97,1023.5 1403.51,1169.82 1257.5,1270.57C1126.88,1360.7 968.833,1406.65 921.144,1422.91C818.191,1458.01 453.498,1528.38 397.385,1207.47C372.9,1067.44 687.634,822.908 687.634,822.908C687.634,822.908 646.548,1012.95 753.264,1134.51C800.262,1188.04 944.656,1220.59 1042.86,1198.13C1184.75,1165.68 1431.08,1013.7 1435.39,820.889C1438.42,684.854 956.864,564.002 997.597,409.167C1035.83,263.837 1021.08,-1.899 914.089,0.436C820.026,2.488 614.263,138.424 613.835,202.804C613.549,245.864 648.017,311.731 683.587,312.015C700.437,312.149 712.581,285.603 740.856,259.98C772.269,231.514 819.104,203.664 819.104,203.664L731.031,616.24C731.031,616.24 525.545,762.115 437.67,843.123C355.945,918.46 218.152,1099.68 218.152,1099.68C218.152,1099.68 140.107,1024.12 103.7,1024.69ZM955.561,612.145C955.561,612.145 859.307,956.755 926.345,1002.74C999.485,1052.91 1225.69,1012.7 1230.91,850.903C1233.15,781.322 1103.72,736.53 1026.28,685.943C977.177,653.869 955.561,612.145 955.561,612.145Z" style="stroke:black;stroke-width:1px;"/>
    </g>
</svg>
