<?xml version="1.0" encoding="UTF-8" standalone="no"?>
<!DOCTYPE svg PUBLIC "-//W3C//DTD SVG 1.1//EN" "http://www.w3.org/Graphics/SVG/1.1/DTD/svg11.dtd">
<svg width="100%" height="100%" viewBox="0 0 2048 2048" version="1.1" xmlns="http://www.w3.org/2000/svg" xmlns:xlink="http://www.w3.org/1999/xlink" xml:space="preserve" xmlns:serif="http://www.serif.com/" style="fill-rule:evenodd;clip-rule:evenodd;stroke-linecap:round;stroke-linejoin:round;stroke-miterlimit:1.5;">
    <g id="レイヤー5">
        <path d="M102.388,1026.26C0.618,1024.54 1.407,1030.67 2.074,1135.62C2.292,1169.94 69.564,1199.29 102.292,1232.16C186.21,1316.44 411.461,1639.7 505.585,1641.3C587.037,1642.68 615.392,1511.43 614.938,1433.02C614.414,1342.37 612.564,1110 612.564,1110C722.749,1071.68 821.402,1023.74 906.645,964.59C906.645,964.59 1222.63,1118.53 1227.05,1230.38C1231.46,1342.23 820.091,1639.61 933.141,1635.71C1028.52,1632.42 1300.12,1486.62 1361.33,1380.52C1416.83,1284.31 1495.06,1267.56 1542.28,1224.48C1577.94,1191.95 1638.45,1156.56 1638.55,1122.62C1638.81,1024.56 1638.45,1024.7 1530.21,1025.73C1477.01,1026.24 1334.59,1025.03 1334.59,1025.03C1245.91,949.061 1145.4,888.784 1035.36,841.115C1117.93,776.944 1241.96,669.45 1238.24,615.316C1232.11,526.24 1062.61,474.078 976.232,564.467C959.561,581.912 1015.13,662.82 896.469,741.933C790.087,812.863 659.573,912.669 614.722,922.59C614.722,922.59 614.913,365.849 615.161,203.772C615.33,93.271 511.076,2.389 409.35,0.325C337.368,-1.135 202.833,193.815 203.83,325.15C204.147,366.969 409.677,247.945 409.677,247.945L412.106,1229.89C412.106,1229.89 181.608,1027.59 102.388,1026.26Z" style="stroke:black;stroke-width:1px;"/>
    </g>
</svg>
