<?xml version="1.0" encoding="UTF-8" standalone="no"?>
<!DOCTYPE svg PUBLIC "-//W3C//DTD SVG 1.1//EN" "http://www.w3.org/Graphics/SVG/1.1/DTD/svg11.dtd">
<svg width="100%" height="100%" viewBox="0 0 2048 2048" version="1.1" xmlns="http://www.w3.org/2000/svg" xmlns:xlink="http://www.w3.org/1999/xlink" xml:space="preserve" xmlns:serif="http://www.serif.com/" style="fill-rule:evenodd;clip-rule:evenodd;stroke-linecap:round;stroke-linejoin:round;stroke-miterlimit:1.5;">
    <g id="レイヤー5">
        <path d="M96.078,1024C0.446,1024.9 2.043,1025.01 0.972,1127.71C-0.186,1238.61 534.852,1640.47 727.081,1639.29C906.941,1638.18 1228.94,1510.15 1230.2,1435.53C1231.39,1364.48 1120.27,1338.43 1038.3,1337.91C952.717,1337.36 820.317,1436.61 718.857,1435.88C612.325,1435.11 427.091,1228.7 421.015,1128.32C415.059,1029.94 520.923,857.169 520.923,857.169C520.923,857.169 1048.21,860.114 1186.4,862.832C1258.88,864.257 1242.42,1020.99 1333.05,1023.45C1402.07,1025.32 1434.97,982.638 1434.74,934.539C1434.22,821.93 1339.57,674.438 1228.29,672.108C1063.23,668.651 572.904,668.607 572.904,668.607C572.904,668.607 613.99,553.368 614.642,508.907C615.798,429.986 614.14,294.484 613.082,204.672C612.218,131.374 588.762,0.86 518.286,0.759C436.339,0.642 390.2,111.815 338.444,160.622C292.996,203.481 187.063,256.714 207.77,294.959C269.134,408.3 415.555,293.989 415.555,293.989L217.395,1121.98C217.395,1121.98 132.16,1023.66 96.078,1024Z" style="stroke:black;stroke-width:1px;"/>
    </g>
</svg>
