<?xml version="1.0" encoding="UTF-8" standalone="no"?>
<!DOCTYPE svg PUBLIC "-//W3C//DTD SVG 1.1//EN" "http://www.w3.org/Graphics/SVG/1.1/DTD/svg11.dtd">
<svg width="100%" height="100%" viewBox="0 0 2048 2048" version="1.1" xmlns="http://www.w3.org/2000/svg" xmlns:xlink="http://www.w3.org/1999/xlink" xml:space="preserve" xmlns:serif="http://www.serif.com/" style="fill-rule:evenodd;clip-rule:evenodd;stroke-linecap:round;stroke-linejoin:round;stroke-miterlimit:1.5;">
    <g id="レイヤー5">
        <path d="M1025.97,819.033C616.961,819.299 617.016,1340.29 617.016,1340.29C617.016,1340.29 401.648,1217.54 403.508,1119.14C405.327,1022.94 410.62,611.954 818.711,613.059C1028.22,613.626 1057.83,716.635 1127.98,716.523C1224.73,716.368 1229.28,716.32 1230.1,612.923C1230.97,503.024 1029.74,407.118 824.857,408.009C206.713,410.697 207.469,1124.89 207.469,1124.89C207.469,1124.89 124.569,1022.54 99.46,1023C4.503,1024.74 1.794,1024.22 0.757,1117.6C0.371,1152.37 53.246,1198.62 88.133,1231.29C344.127,1471.02 613.706,1550.58 613.706,1550.58C613.706,1550.58 603.876,1649.12 535.402,1741.88C477.362,1820.51 205.439,2045.5 299.522,2045.65C411.251,2045.84 623.689,1850.79 704.513,1764.4C820.352,1640.58 825.359,1544.03 825.359,1544.03C825.359,1544.03 1033.15,1495.5 1111.18,1435.6C1189.22,1375.71 1293.56,1184.65 1293.56,1184.65C1293.56,1184.65 1324.23,1226.24 1346.92,1226.98C1434.85,1229.86 1433.65,1227.9 1435.3,1127.98C1435.77,1099.14 1428.93,976.131 1375.34,935.682C1307.12,884.191 1229.49,818.901 1025.97,819.033ZM823.817,1356.74C823.817,1356.74 822.618,1021.75 1024.38,1020.98C1132.1,1020.57 1130.04,1084.69 1129.33,1137.77C1126.68,1334.94 823.817,1356.74 823.817,1356.74Z" style="stroke:black;stroke-width:1px;"/>
    </g>
</svg>
