<?xml version="1.0" encoding="UTF-8" standalone="no"?>
<!DOCTYPE svg PUBLIC "-//W3C//DTD SVG 1.1//EN" "http://www.w3.org/Graphics/SVG/1.1/DTD/svg11.dtd">
<svg width="100%" height="100%" viewBox="0 0 2048 2048" version="1.1" xmlns="http://www.w3.org/2000/svg" xmlns:xlink="http://www.w3.org/1999/xlink" xml:space="preserve" xmlns:serif="http://www.serif.com/" style="fill-rule:evenodd;clip-rule:evenodd;stroke-linecap:round;stroke-linejoin:round;stroke-miterlimit:1.5;">
    <g id="レイヤー5">
        <path d="M101.318,1026.2C-0.3,1027.94 2.237,1028.43 0.675,1132.47C-0,1177.48 239.302,1301.39 241.479,1542.77C243.323,1747.22 100.431,1845.87 97.634,1953.61C95.143,2049.55 101.427,2051.94 207.305,2047.65C315.264,2043.28 323.333,1838.7 513.92,1644.58C622.837,1533.64 857.74,1369.43 1024.64,1227.79C1218.67,1063.12 1347.57,890.664 1347.57,890.664C1347.57,890.664 1405.39,975.947 1431.88,1034C1472.56,1123.18 1476.06,1227.51 1535.02,1227.53C1639.13,1227.56 1639.99,1228.12 1641.06,1138.93C1641.91,1067.4 1548.51,803.758 1437.2,614.039C1370.13,499.718 1304.68,411.233 1226.44,410.649C1152.69,410.097 1023.18,410.555 1024.65,512.717C1026.04,609.748 1228.4,516.419 1230.55,729.388C1231.21,795.247 1141.83,913.781 1025.01,1025.45C814.043,1227.13 515.727,1430.36 515.727,1430.36C515.727,1430.36 713.32,823.537 714.154,615.182C714.545,517.321 613.786,410.595 515.29,409.867C408.479,409.078 302.677,410.157 303.233,516.913C303.795,624.84 516.543,511.66 516.515,614.931C516.461,815.284 373.4,1288.47 373.4,1288.47C373.4,1288.47 201.091,1024.48 101.318,1026.2Z" style="stroke:black;stroke-width:1px;"/>
    </g>
</svg>
