<?xml version="1.0" encoding="UTF-8" standalone="no"?>
<!DOCTYPE svg PUBLIC "-//W3C//DTD SVG 1.1//EN" "http://www.w3.org/Graphics/SVG/1.1/DTD/svg11.dtd">
<svg width="100%" height="100%" viewBox="0 0 2048 2048" version="1.1" xmlns="http://www.w3.org/2000/svg" xmlns:xlink="http://www.w3.org/1999/xlink" xml:space="preserve" xmlns:serif="http://www.serif.com/" style="fill-rule:evenodd;clip-rule:evenodd;stroke-linecap:round;stroke-linejoin:round;stroke-miterlimit:1.5;">
    <g id="レイヤー5">
        <path d="M97.93,1023.26C0.523,1023.73 -3.677,1024.7 0.223,1128.3C4.09,1231.06 209.559,1642.75 616.414,1642.08C824.248,1641.73 922.645,1414.87 923.389,1228.51C924.243,1014.21 1133.84,609.255 1232.56,611.582C1340.02,614.116 1433.83,914.565 1433.77,1023.55C1433.7,1138.99 1027.61,1435.15 1025.87,1536.12C1024.06,1641.44 1024.98,1640.83 1119.63,1639.21C1230.6,1637.31 1638.14,1141.43 1638.84,1024.21C1638.84,1023.98 1642.05,1226.76 1745.93,1228.39C1841.6,1229.88 1845.62,1230.64 1845.65,1131.01C1845.68,1024.05 1843.48,411.229 1231.91,409.671C1024.57,409.142 723.361,1031.3 721.712,1230.33C719.997,1437.25 718.682,1433.49 614.333,1433.78C495.72,1434.1 407.636,1353.88 411.033,1226.02C413.928,1117.06 821.771,614.447 823.427,520.5C825.348,411.53 719.323,413.431 610.103,411.175C508.372,409.073 309.208,411.799 308.821,516.115C308.449,616.048 510.049,614.245 510.615,711.814C511.232,818.051 296.73,912.198 300.12,1023.8C300.271,1028.77 202.199,1022.76 97.93,1023.26Z" style="stroke:black;stroke-width:1px;"/>
    </g>
</svg>
