<?xml version="1.0" encoding="UTF-8" standalone="no"?>
<!DOCTYPE svg PUBLIC "-//W3C//DTD SVG 1.1//EN" "http://www.w3.org/Graphics/SVG/1.1/DTD/svg11.dtd">
<svg width="100%" height="100%" viewBox="0 0 2048 2048" version="1.1" xmlns="http://www.w3.org/2000/svg" xmlns:xlink="http://www.w3.org/1999/xlink" xml:space="preserve" xmlns:serif="http://www.serif.com/" style="fill-rule:evenodd;clip-rule:evenodd;stroke-linecap:round;stroke-linejoin:round;stroke-miterlimit:1.5;">
    <g id="レイヤー5">
        <path d="M100.08,1025.79C-0.627,1023.72 1.775,1022.61 0.477,1134.38C-0.579,1225.25 202.248,1637.19 313.289,1638.86C363.729,1639.62 605.431,1474.04 825.068,1290.25C1037.36,1112.6 1228.65,918.304 1228.48,819.913C1228.31,720.052 1233.42,722.457 1233.42,722.457C1233.42,722.457 1545.77,507.556 1542.64,711.081C1541.06,814.245 1396.25,1096.97 1229.96,1229.74C936.886,1463.75 412.228,1638.49 615.148,1636.95C733.035,1636.06 973.932,1603.29 1231.08,1439.37C1448.02,1301.08 1638.25,1027.67 1638.25,1027.67C1638.25,1027.67 1639.24,1229.55 1740.93,1229.97C1842.58,1230.38 1841.46,1230.85 1844.49,1128.61C1847.66,1021.4 1837.06,409.021 1532.61,408.35C1326.37,407.895 1228.95,613.387 1228.95,613.387C1228.95,613.387 1122.77,406.649 1018.68,407.517C906.045,408.455 816.066,502.598 818.437,615.036C820.834,728.671 1019.4,717.329 1020.32,822.402C1021.35,939.049 418.252,1315.61 418.252,1315.61C418.252,1315.61 526.061,718.731 525.531,615.972C525.022,517.592 511.606,406.972 415.266,408.166C306.383,409.517 204.76,411.661 204.34,513.68C203.927,613.893 306.579,511.121 307.288,614.018C308.699,818.937 201.753,1228.53 201.753,1228.53C201.753,1228.53 205.356,1027.96 100.08,1025.79Z" style="stroke:black;stroke-width:1px;"/>
    </g>
</svg>
