<?xml version="1.0" encoding="UTF-8" standalone="no"?>
<!DOCTYPE svg PUBLIC "-//W3C//DTD SVG 1.1//EN" "http://www.w3.org/Graphics/SVG/1.1/DTD/svg11.dtd">
<svg width="100%" height="100%" viewBox="0 0 2048 2048" version="1.1" xmlns="http://www.w3.org/2000/svg" xmlns:xlink="http://www.w3.org/1999/xlink" xml:space="preserve" xmlns:serif="http://www.serif.com/" style="fill-rule:evenodd;clip-rule:evenodd;stroke-linecap:round;stroke-linejoin:round;stroke-miterlimit:1.5;">
    <g id="レイヤー5">
        <path d="M613.213,204.223C92.596,205.816 2.134,1029.8 2.54,1116.66C3.023,1220.11 9.447,1236.97 94.397,1230.6C211.753,1221.79 208.638,413.69 612.45,411.114C718.064,410.44 825.953,501.486 823.356,607.329C818.34,811.825 824.707,1233.63 822.08,1425.62C820.412,1547.54 820.6,1640.98 930.045,1640.1C1023.83,1639.34 1231.8,1229.62 1231.12,1132.83C1230.36,1022.75 1231.66,1023.93 1138.85,1023.73C1101.75,1023.65 1025.39,1226.18 1025.39,1226.18C1025.39,1226.18 1024.41,822.791 1023.2,617.391C1022.03,419.995 818.381,203.596 613.213,204.223Z" style="stroke:black;stroke-width:1px;"/>
    </g>
</svg>
