<?xml version="1.0" encoding="UTF-8" standalone="no"?>
<!DOCTYPE svg PUBLIC "-//W3C//DTD SVG 1.1//EN" "http://www.w3.org/Graphics/SVG/1.1/DTD/svg11.dtd">
<svg width="100%" height="100%" viewBox="0 0 2048 2048" version="1.1" xmlns="http://www.w3.org/2000/svg" xmlns:xlink="http://www.w3.org/1999/xlink" xml:space="preserve" xmlns:serif="http://www.serif.com/" style="fill-rule:evenodd;clip-rule:evenodd;stroke-linecap:round;stroke-linejoin:round;stroke-miterlimit:1.5;">
    <g id="レイヤー5">
        <path d="M104.211,1023.58C3.708,1023.22 0.69,1026 1.13,1126.71C1.581,1230.09 205.004,1640.8 302.108,1640.37C408.642,1639.89 411.761,1643.65 409.502,1537.11C407.3,1433.25 1343.34,1023.72 1344.54,825.191C1344.55,823.759 1434.5,1228.58 1541.69,1226.79C1639.18,1225.17 1640.2,1163.05 1640.07,1145.43C1639.45,1063.77 1555.19,625.632 1430.77,512.147C1329.72,419.977 1158.68,409.005 1132.38,409.64C1023.98,412.262 1019.46,414.841 1022.12,510.236C1024.96,612.126 1029.08,611.273 1138.21,614.996C1225.3,617.967 1226.6,618.421 1229.42,714.514C1232.57,821.554 410.153,1233.03 410.094,1337.83C410.04,1432.42 410.925,614.969 411.068,512.569C411.211,410.229 412.604,409.697 313.243,409.675C206.355,409.652 92.868,494.06 101.058,616.697C107.771,717.214 207.575,710.824 207.575,710.824L203.266,1230.42C203.266,1230.42 206.193,1023.95 104.211,1023.58Z" style="stroke:black;stroke-width:1px;"/>
    </g>
</svg>
