<?xml version="1.0" encoding="UTF-8" standalone="no"?>
<!DOCTYPE svg PUBLIC "-//W3C//DTD SVG 1.1//EN" "http://www.w3.org/Graphics/SVG/1.1/DTD/svg11.dtd">
<svg width="100%" height="100%" viewBox="0 0 2048 2048" version="1.1" xmlns="http://www.w3.org/2000/svg" xmlns:xlink="http://www.w3.org/1999/xlink" xml:space="preserve" xmlns:serif="http://www.serif.com/" style="fill-rule:evenodd;clip-rule:evenodd;stroke-linecap:round;stroke-linejoin:round;stroke-miterlimit:1.5;">
    <g id="レイヤー5">
        <path d="M104.838,1025C3.852,1021.79 1.608,1021.48 -1.29,1133.64C-2.169,1167.67 1.103,1229.54 91.659,1230.78C141.09,1231.45 342.344,1140.57 403.644,1140.18C557.68,1139.2 1022.24,1147.44 1022.24,1147.44C1022.24,1147.44 974.226,1273.63 912.834,1339.12C851.442,1404.61 618.342,1438.36 615.159,1543.96C613.789,1589.45 667.739,1644.9 718.535,1642.38C1089.41,1623.96 1235.31,1151.18 1235.31,1151.18C1235.31,1151.18 1329.12,1230.52 1331.81,1230.5C1437.64,1229.56 1433.99,1228.52 1433.89,1145.3C1433.82,1086.52 1438.84,1023.33 1346.64,1003.06C1297.98,992.358 1272.54,978.205 1261.96,884.799C1227.12,576.973 873.327,411.713 691.015,411.291C512.878,410.879 201.951,615.59 207.706,720.633C210.178,765.765 254.107,819.514 299.089,820.814C377.503,823.079 415.604,610.304 692.021,612.312C1023.66,614.722 1019.21,934.693 1019.21,934.693C1019.21,934.693 624.757,935.096 473.949,935.879C379.914,936.368 169.542,1027.05 104.838,1025Z" style="stroke:black;stroke-width:1px;"/>
    </g>
</svg>
