<?xml version="1.0" encoding="UTF-8" standalone="no"?>
<!DOCTYPE svg PUBLIC "-//W3C//DTD SVG 1.1//EN" "http://www.w3.org/Graphics/SVG/1.1/DTD/svg11.dtd">
<svg width="100%" height="100%" viewBox="0 0 2048 2048" version="1.1" xmlns="http://www.w3.org/2000/svg" xmlns:xlink="http://www.w3.org/1999/xlink" xml:space="preserve" xmlns:serif="http://www.serif.com/" style="fill-rule:evenodd;clip-rule:evenodd;stroke-linecap:round;stroke-linejoin:round;stroke-miterlimit:1.5;">
    <g id="レイヤー4">
    </g>
    <g id="レイヤー5">
        <path d="M90.891,1023.4C2.881,1024.97 -0.108,1025.14 0.114,1107.86C0.435,1227 265.768,1641.9 503.544,1637.37C1018.5,1627.55 1229.84,1024.56 1229.84,1024.56C1229.84,1024.56 1292.95,1226.61 1332.26,1225.3C1430.81,1222 1429.04,1227.14 1431.91,1126.37C1434.82,1024.57 1187.35,409.836 913.937,405.942C288.343,397.033 159.039,1109.55 159.039,1109.55C159.039,1109.55 117.603,1022.93 90.891,1023.4ZM890.749,588.863C1046.75,661.503 1080.96,919 967.096,1163.52C853.234,1408.05 634.142,1547.59 478.143,1474.95C322.144,1402.31 287.934,1144.82 401.796,900.293C515.657,655.769 734.75,516.222 890.749,588.863Z" style="stroke:black;stroke-width:1px;"/>
    </g>
</svg>
