<?xml version="1.0" encoding="UTF-8" standalone="no"?>
<!DOCTYPE svg PUBLIC "-//W3C//DTD SVG 1.1//EN" "http://www.w3.org/Graphics/SVG/1.1/DTD/svg11.dtd">
<svg width="100%" height="100%" viewBox="0 0 2048 2048" version="1.1" xmlns="http://www.w3.org/2000/svg" xmlns:xlink="http://www.w3.org/1999/xlink" xml:space="preserve" xmlns:serif="http://www.serif.com/" style="fill-rule:evenodd;clip-rule:evenodd;stroke-linecap:round;stroke-linejoin:round;stroke-miterlimit:1.5;">
    <g id="レイヤー5">
        <path d="M81.065,1022.56C4.464,1022.55 2.704,1022.79 1.406,1113.25C-0.28,1230.67 385.75,1634.45 509.621,1636.7C613.199,1638.58 613.719,1580.7 613.423,1546.28C613.126,1511.86 557.373,1432.2 507.946,1432.58C424.965,1433.22 329.82,1196.73 327.053,1080.22C323.802,943.292 363.901,611.235 412.326,609.489C459.589,607.785 577.094,867.868 612.615,1025.62C656.403,1220.09 911.154,1637.07 1022.73,1638C1133.05,1638.93 1229.58,1620.06 1228.66,1544.7C1228.09,1497.42 1227.72,1427.36 1123.36,1433.27C981.734,1441.29 861.931,1109.88 817.793,1029.14C764.964,932.506 725.667,697.267 725.667,697.267C725.667,697.267 823.663,610.947 920.668,611.846C1023.95,612.804 1049.21,874.846 1104.87,1017.17C1177.28,1202.3 1323.5,1635.86 1527.39,1638.78C1580.71,1639.54 1687.89,1561.68 1750.61,1454.08C1820.5,1334.19 1843.32,1180.78 1843.19,1128.37C1842.93,1022.71 1844.04,1020.56 1748.73,1021.39C1616.46,1022.54 1651.5,1426.47 1527.52,1425.37C1471.99,1424.88 1371.9,1137.95 1324.14,1020.16C1224.54,774.544 1092.22,399.768 922.723,408.14C827.415,412.847 686.7,561.304 686.7,561.304C686.7,561.304 614.584,406.374 409.378,406.417C325.676,406.435 248.321,499.967 207.22,617.109C139.185,811.017 142.726,1069.29 142.726,1069.29C142.726,1069.29 104.816,1022.57 81.065,1022.56Z" style="stroke:black;stroke-width:1px;"/>
    </g>
</svg>
