<?xml version="1.0" encoding="UTF-8" standalone="no"?>
<!DOCTYPE svg PUBLIC "-//W3C//DTD SVG 1.1//EN" "http://www.w3.org/Graphics/SVG/1.1/DTD/svg11.dtd">
<svg width="100%" height="100%" viewBox="0 0 2048 2048" version="1.1" xmlns="http://www.w3.org/2000/svg" xmlns:xlink="http://www.w3.org/1999/xlink" xml:space="preserve" xmlns:serif="http://www.serif.com/" style="fill-rule:evenodd;clip-rule:evenodd;stroke-linecap:round;stroke-linejoin:round;stroke-miterlimit:1.5;">
    <g id="レイヤー5">
        <path d="M116.9,1024.88C2.722,1025.46 3.689,1027.38 2.947,1127.19C2.848,1140.48 60.297,1189.78 96.999,1283.27C154.438,1429.57 169.318,1638.79 304.173,1638.72C454.908,1638.63 507.509,1022.12 562.177,565.403C587.816,351.206 687.4,204.824 819.864,206.636C925.297,208.078 1065.64,267.85 1086.07,380.533C1121.09,573.655 1120.11,836.261 1189.51,1024.82C1251.59,1193.49 1469,1221.67 1535.72,1222.65C1635.26,1224.1 1642.65,1218.56 1640.65,1120.85C1638.7,1025.69 1638.28,1025.49 1555.4,1024.07C1489.97,1022.95 1382.56,951.431 1366.28,873.57C1327.44,687.797 1344.84,500.605 1296.07,305.86C1253.21,134.712 1035.23,4.712 824.158,7.952C551.187,12.141 367.509,251.782 326.122,532.076C274.802,879.638 235.179,1190.34 235.179,1190.34C235.179,1190.34 157.011,1024.67 116.9,1024.88Z" style="stroke:black;stroke-width:1px;"/>
    </g>
</svg>
