<?xml version="1.0" encoding="UTF-8" standalone="no"?>
<!DOCTYPE svg PUBLIC "-//W3C//DTD SVG 1.1//EN" "http://www.w3.org/Graphics/SVG/1.1/DTD/svg11.dtd">
<svg width="100%" height="100%" viewBox="0 0 2048 2048" version="1.1" xmlns="http://www.w3.org/2000/svg" xmlns:xlink="http://www.w3.org/1999/xlink" xml:space="preserve" xmlns:serif="http://www.serif.com/" style="fill-rule:evenodd;clip-rule:evenodd;stroke-linecap:round;stroke-linejoin:round;stroke-miterlimit:1.5;">
    <g id="レイヤー5">
        <path d="M97.892,1026.55C0.631,1023.67 -1.079,1026.77 0.33,1125.49C1.843,1231.5 168.119,1475.25 272.414,1638.22C440.855,1901.41 773.558,2047.48 910.881,2047.9C958.691,2048.04 1037.24,1987.74 1033.5,1953.86C1022.14,1851.01 840.702,1802.9 788.019,1787.76C633.212,1743.27 442.528,1494.06 445.452,1308.85C448.376,1123.63 779.792,616.189 944.543,680.108C1101.07,740.835 933.201,1300.15 1116.9,1406.1C1281.54,1501.05 1635.46,1236.92 1639.15,1131.35C1642.71,1029.45 1642.41,1024.58 1543.32,1026.04C1493.08,1026.77 1354.24,1215.1 1283.47,1177.03C1174.47,1118.4 1281.13,411.988 1126.88,411.175C503.007,407.89 229.507,1223.1 229.507,1223.1C229.507,1223.1 138.81,1027.76 97.892,1026.55Z" style="stroke:black;stroke-width:1px;"/>
    </g>
</svg>
