<?xml version="1.0" encoding="UTF-8" standalone="no"?>
<!DOCTYPE svg PUBLIC "-//W3C//DTD SVG 1.1//EN" "http://www.w3.org/Graphics/SVG/1.1/DTD/svg11.dtd">
<svg width="100%" height="100%" viewBox="0 0 2048 2048" version="1.1" xmlns="http://www.w3.org/2000/svg" xmlns:xlink="http://www.w3.org/1999/xlink" xml:space="preserve" xmlns:serif="http://www.serif.com/" style="fill-rule:evenodd;clip-rule:evenodd;stroke-linecap:round;stroke-linejoin:round;stroke-miterlimit:1.5;">
    <g id="レイヤー5">
        <path d="M85.789,1025.22C53.826,1025.13 2.534,1026.21 1.464,1130.38C0.056,1267.4 204.259,1637.98 612.715,1637.44C779.423,1637.23 1022.1,1505.22 1023.05,1335.38C1024.04,1159.4 1029.15,749.832 1029.15,749.832C1029.15,749.832 1199.31,728.386 1329.44,874.21C1383.16,934.398 1420.54,1054.72 1434.69,1124.36C1444.35,1171.92 1502.3,1226.97 1537.12,1227.87C1636.85,1230.45 1640.4,1231.96 1643.59,1130.2C1646.16,1048.04 1581.1,845.173 1486.85,742.434C1293.41,531.546 1026.56,540.861 1026.56,540.861C1026.56,540.861 1049.9,-5.026 917.442,-2.995C836.658,-1.756 614.505,132.414 616.627,202.425C617.795,240.966 650.723,295.574 684.344,296.211C717.964,296.847 818.351,206.245 818.351,206.245L820.984,558.233C820.984,558.233 604.235,632.78 412.51,808.015C256.934,950.21 223.594,1133.61 223.594,1133.61C223.594,1133.61 116.559,1025.31 85.789,1025.22ZM817.629,767.591C817.629,767.591 817.284,1226.03 812.204,1341.51C809.219,1409.37 683.264,1482.19 588.187,1451.96C501.04,1424.26 401.462,1290.44 403.027,1223.83C410.399,910.184 817.629,767.591 817.629,767.591Z" style="stroke:black;stroke-width:1px;"/>
    </g>
</svg>
