<?xml version="1.0" encoding="UTF-8" standalone="no"?>
<!DOCTYPE svg PUBLIC "-//W3C//DTD SVG 1.1//EN" "http://www.w3.org/Graphics/SVG/1.1/DTD/svg11.dtd">
<svg width="100%" height="100%" viewBox="0 0 2048 2048" version="1.1" xmlns="http://www.w3.org/2000/svg" xmlns:xlink="http://www.w3.org/1999/xlink" xml:space="preserve" xmlns:serif="http://www.serif.com/" style="fill-rule:evenodd;clip-rule:evenodd;stroke-linecap:round;stroke-linejoin:round;stroke-miterlimit:1.5;">
    <g id="レイヤー5">
        <path d="M104.243,1023.78C1.163,1023.37 1.213,1023.1 1.044,1129.41C0.873,1237.73 169.176,1631.18 330.509,1636.24C495.787,1641.43 640.662,1637.05 819.337,1637.18C991.042,1637.31 1230.13,1250.29 1229.29,1137.11C1228.46,1024.51 1228.25,1025.32 1133.03,1024.12C1045.54,1023.03 919.158,1430.72 717.537,1428.16C512.711,1425.57 510.981,1424.58 510.454,1225.72C509.935,1030.26 507.943,402.346 507.042,205.558C506.716,134.506 461.698,0.609 410.795,1.135C355.268,1.709 204.508,206.525 203.267,308.406C202.01,411.687 322.765,307.341 322.765,307.341L320.062,1344.68C320.062,1344.68 167.074,1024.03 104.243,1023.78Z" style="stroke:black;stroke-width:1px;"/>
    </g>
</svg>
