<?xml version="1.0" encoding="UTF-8" standalone="no"?>
<!DOCTYPE svg PUBLIC "-//W3C//DTD SVG 1.1//EN" "http://www.w3.org/Graphics/SVG/1.1/DTD/svg11.dtd">
<svg width="100%" height="100%" viewBox="0 0 2048 2048" version="1.1" xmlns="http://www.w3.org/2000/svg" xmlns:xlink="http://www.w3.org/1999/xlink" xml:space="preserve" xmlns:serif="http://www.serif.com/" style="fill-rule:evenodd;clip-rule:evenodd;stroke-linecap:round;stroke-linejoin:round;stroke-miterlimit:1.5;">
    <g id="レイヤー5">
        <path d="M97.167,1024.25C2.342,1023.79 2.212,1026.7 -0.345,1128.75C-3.133,1240.05 310.189,1638.4 411.637,1637.8C503.558,1637.26 524.034,1500.72 525.003,1428.29C525.987,1354.75 523.277,1228.31 523.277,1228.31C523.277,1228.31 726.257,1434.52 1025.84,1435.27C1169.12,1435.63 1432.09,1118.9 1432.09,1118.9C1432.09,1118.9 1502.34,1226.3 1537.89,1227.5C1638.23,1230.91 1636.17,1228.12 1638.84,1132.94C1641.82,1026.36 1229.06,614.944 1229.06,614.944C1229.06,614.944 1294.59,615.007 1332.43,615.129C1370.92,615.254 1434.66,553.395 1434.48,519.099C1434.3,484.803 1381.54,410.294 1331.35,409.355C1261.81,408.054 1095.73,409.593 1023.16,409.653C968.712,409.698 915.225,475.473 915.56,509.584C915.895,543.694 994.602,574.076 1025.17,614.315C1077.82,683.612 1231.52,822.935 1231.45,925.367C1231.38,1027.8 1136.44,1227.78 1024.74,1228.91C717.019,1232.02 524.318,1021.24 524.318,1021.24C524.318,1021.24 517.671,720.954 518.964,614.102C519.902,536.573 461.646,408.684 409.247,409C356.848,409.316 166.304,557.101 204.571,615.997C245.632,679.194 309.722,618.343 309.722,618.343L308.326,1218.06C308.326,1218.06 150.722,1024.51 97.167,1024.25Z" style="stroke:black;stroke-width:1px;"/>
    </g>
</svg>
