<?xml version="1.0" encoding="UTF-8" standalone="no"?>
<!DOCTYPE svg PUBLIC "-//W3C//DTD SVG 1.1//EN" "http://www.w3.org/Graphics/SVG/1.1/DTD/svg11.dtd">
<svg width="100%" height="100%" viewBox="0 0 2048 2048" version="1.1" xmlns="http://www.w3.org/2000/svg" xmlns:xlink="http://www.w3.org/1999/xlink" xml:space="preserve" xmlns:serif="http://www.serif.com/" style="fill-rule:evenodd;clip-rule:evenodd;stroke-linecap:round;stroke-linejoin:round;stroke-miterlimit:1.5;">
    <g id="レイヤー5">
        <path d="M92.243,1024.86C3.583,1025.14 2.456,1025.26 1.658,1119.39C1.066,1189.1 223.106,1427.75 300.042,1387.83C371.763,1350.63 424.759,947.338 497.411,888.393C624.471,785.306 1025.23,502.402 1025.77,726.72C1026.49,1021.22 675.898,1047.61 569.172,1167.34C463.609,1285.76 587.054,1494.48 539.745,1640.3C492.437,1786.11 206.538,2045.82 304.666,2045.93C408.307,2046.06 670.318,1751.82 750.619,1636.38C804.934,1558.29 778.666,1376.59 850.396,1272.76C890.637,1214.51 1107.18,1037.95 1112.88,1050.28C1112.88,1050.28 1233.2,1226.34 1329.76,1227.04C1435.09,1227.81 1435.87,1225.22 1436.09,1120.54C1436.3,1024.58 1281.73,855.64 1265.02,803.218C1222.76,670.547 1153.57,409.308 1026.15,407.688C903.256,406.126 721.14,615.398 617.197,611.936C496.466,607.916 595.186,405.722 481.236,406.939C396.332,407.846 121.975,588.018 105.689,680.298C79.377,829.382 317.611,721.909 321.32,807.702C325.941,914.617 244.094,1120.65 244.094,1120.65C244.094,1120.65 131.813,1024.73 92.243,1024.86Z" style="stroke:black;stroke-width:1px;"/>
    </g>
</svg>
