<?xml version="1.0" encoding="UTF-8" standalone="no"?>
<!DOCTYPE svg PUBLIC "-//W3C//DTD SVG 1.1//EN" "http://www.w3.org/Graphics/SVG/1.1/DTD/svg11.dtd">
<svg width="100%" height="100%" viewBox="0 0 2048 2048" version="1.1" xmlns="http://www.w3.org/2000/svg" xmlns:xlink="http://www.w3.org/1999/xlink" xml:space="preserve" xmlns:serif="http://www.serif.com/" style="fill-rule:evenodd;clip-rule:evenodd;stroke-linecap:round;stroke-linejoin:round;stroke-miterlimit:1.5;">
    <g id="レイヤー5">
        <path d="M109.924,1024.8C0.544,1022.34 0.026,1023.77 0.955,1126.53C1.911,1232.24 706.558,1640.66 817.523,1639.4C1100,1636.21 362.815,1179.81 360.525,941.639C355.017,368.736 1024.74,203.761 1024.74,203.761L1020.74,345.396C1020.74,345.396 794.896,345.935 795.754,412.171C797.31,532.467 1024.29,529.684 1024.29,529.684C1024.29,529.684 1021.24,636.047 1021.98,688.602C1022.74,742.727 884.912,795.182 890.199,852.761C895.487,910.34 972.543,1028.06 1053.7,1034.08C1175.94,1043.15 1343.59,1229.79 1533.55,1229.91C1634.68,1229.98 1642.27,1171.51 1641.1,1137.29C1637.23,1023.76 1642.01,1024.95 1531.54,1024.49C1454.17,1024.16 1322.27,953.013 1233.06,915.938C1065.32,846.233 1231.84,781.146 1230.53,692.826C1229.12,597.642 1228.6,530.259 1228.6,530.259C1228.6,530.259 1530.69,533.887 1529.74,411.593C1529.29,352.605 1229.5,348.35 1229.5,348.35C1229.5,348.35 1230.93,283.95 1230.25,205.303C1229.34,101.15 1176.45,3.433 1114.47,3.574C718.082,4.471 399.457,336.422 248.257,562.58C38.279,876.653 245.139,1164.46 245.139,1164.46C245.139,1164.46 156.929,1025.87 109.924,1024.8Z" style="stroke:black;stroke-width:1px;"/>
    </g>
</svg>
