<?xml version="1.0" encoding="UTF-8" standalone="no"?>
<!DOCTYPE svg PUBLIC "-//W3C//DTD SVG 1.1//EN" "http://www.w3.org/Graphics/SVG/1.1/DTD/svg11.dtd">
<svg width="100%" height="100%" viewBox="0 0 2048 2048" version="1.1" xmlns="http://www.w3.org/2000/svg" xmlns:xlink="http://www.w3.org/1999/xlink" xml:space="preserve" xmlns:serif="http://www.serif.com/" style="fill-rule:evenodd;clip-rule:evenodd;stroke-linecap:round;stroke-linejoin:round;stroke-miterlimit:1.5;">
    <g id="レイヤー5">
        <path d="M98.51,821.462C1.045,823.209 -0.459,820.374 1.325,915.299C3.424,1026.94 291.344,1435.38 408.191,1435.3C509.693,1435.23 615.637,1326.95 615.627,1227.04C615.616,1116.29 612.572,920.986 614.845,811.792C617.273,695.139 707.699,611.544 820.148,613.248C919.758,614.757 1019.28,615.08 1020.72,720.779C1022,813.856 822.894,915.208 817.9,1026.1C808.947,1224.87 818.171,1440.83 819.045,1644.24C819.912,1846.36 816.523,2044.56 1129.66,2045.07C1434.66,2045.58 1638.75,1230.34 1637.27,1127.54C1635.82,1026.18 1637.11,1025 1543.25,1024.1C1434.86,1023.06 1229.84,1845.84 1130.21,1843.49C1029.79,1841.12 1026.55,1752.36 1025.8,1642.73C1024.39,1434.24 1020.82,1233.33 1022.51,1025.94C1023.38,919.508 1232.14,925.816 1232.95,724.835C1233.84,505.319 1023.86,409.376 821.158,407.603C721.404,406.73 657.526,449.613 604.287,502.004C554.982,550.523 476.779,412.734 406.135,411.966C335.492,411.198 208.17,488.763 202.598,721.626C200.192,822.168 405.983,505.925 408.199,615.216C410.382,722.873 410.995,1231.63 410.995,1231.63C410.995,1231.63 203.615,819.578 98.51,821.462Z" style="stroke:black;stroke-width:1px;"/>
    </g>
</svg>
