<?xml version="1.0" encoding="UTF-8" standalone="no"?>
<!DOCTYPE svg PUBLIC "-//W3C//DTD SVG 1.1//EN" "http://www.w3.org/Graphics/SVG/1.1/DTD/svg11.dtd">
<svg width="100%" height="100%" viewBox="0 0 2048 2048" version="1.1" xmlns="http://www.w3.org/2000/svg" xmlns:xlink="http://www.w3.org/1999/xlink" xml:space="preserve" xmlns:serif="http://www.serif.com/" style="fill-rule:evenodd;clip-rule:evenodd;stroke-linecap:round;stroke-linejoin:round;stroke-miterlimit:1.5;">
    <g transform="matrix(1.20112,0,0,1.16529,0.0326888,-270.751)">
        <g id="レイヤー5">
            <path d="M103.419,1111.17C1.345,1110.34 -2.746,1109.12 -0.499,1211.96C0.222,1244.98 119.548,1276.25 237.95,1400.14C351.537,1518.99 406.25,1637.07 513.038,1637.67C556.785,1637.92 613.331,1600.01 614.297,1532.65C615.394,1456.2 618.707,1408.03 618.707,1408.03C618.707,1408.03 711.358,1364.63 762.507,1320.07C815.357,1274.02 850.784,1235.69 851.399,1197.98C852.824,1110.55 853.896,1111.27 768.614,1111.85C730.518,1112.11 611.585,1211.57 611.585,1211.57C611.585,1211.57 614.092,749.78 616.869,612.951C618.476,533.753 593.024,404.451 510.595,408.107C434.955,411.463 390.439,482.67 334.572,525.993C280.083,568.249 144.723,592.526 168.041,675.24C212.745,833.817 440.791,642.624 440.791,642.624L440.44,1420.53C440.44,1420.53 400.401,1345.79 331.222,1267.69C252.903,1179.27 143.837,1111.5 103.419,1111.17Z" style="stroke:black;stroke-width:0.85px;"/>
        </g>
    </g>
</svg>
