<?xml version="1.0" encoding="UTF-8" standalone="no"?>
<!DOCTYPE svg PUBLIC "-//W3C//DTD SVG 1.1//EN" "http://www.w3.org/Graphics/SVG/1.1/DTD/svg11.dtd">
<svg width="100%" height="100%" viewBox="0 0 2048 2048" version="1.1" xmlns="http://www.w3.org/2000/svg" xmlns:xlink="http://www.w3.org/1999/xlink" xml:space="preserve" xmlns:serif="http://www.serif.com/" style="fill-rule:evenodd;clip-rule:evenodd;stroke-linecap:round;stroke-linejoin:round;stroke-miterlimit:1.5;">
    <g id="レイヤー5">
        <path d="M103.32,1024.27C7.042,1026.19 5.676,1031.1 4.018,1131.05C2.531,1220.66 205.193,1636 306.122,1639.04C412.718,1642.25 502.369,1596.63 612.222,1506.62C727.887,1411.84 820.552,1278.88 820.552,1278.88C820.552,1278.88 826.085,1637.48 919.539,1637.41C1032.62,1637.34 1224.52,1629.56 1227.4,1532.84C1230.4,1432.23 1079.1,1497.22 1054.36,1435.91C1020.46,1351.93 1028.73,1041.58 1028.73,1041.58C1028.73,1041.58 1092.01,1014.48 1125.06,982.106C1157.74,950.088 1272.78,851.615 1272.78,851.615C1272.78,851.615 1277.74,921.115 1367.91,1034.28C1452.29,1140.18 1435.28,1221.12 1543.88,1228.19C1635.36,1234.15 1636.45,1230.02 1638.69,1134.15C1640.24,1067.88 1508.38,923.909 1462.79,732.094C1445.79,660.528 1537,620.52 1532.94,503.934C1529.71,411.124 1364.38,403.417 1316.99,402.684C1216.09,401.121 920.853,411.849 817.705,410.163C716.087,408.501 613.277,411.847 612.386,515.858C611.541,614.475 715.789,613.956 819.023,614.088C923.035,614.222 1067.62,613.717 1174.2,613.079C1290.52,612.382 976.573,832.112 976.573,832.112C976.573,832.112 778.05,585.108 368.024,987.386C309.706,1044.6 234.662,1232.46 234.662,1232.46C234.662,1232.46 211.663,1176.86 189.899,1124.49C168.769,1073.64 152.474,1023.3 103.32,1024.27ZM483.424,1128.52C817.858,775.892 805.741,1076.81 805.741,1076.81C805.741,1076.81 766.516,1140.01 729.263,1183.02C662.307,1260.33 456.504,1434.96 410.08,1434.18C295.281,1432.25 364.871,1253.53 483.424,1128.52Z" style="stroke:black;stroke-width:1px;"/>
    </g>
</svg>
