<?xml version="1.0" encoding="UTF-8" standalone="no"?>
<!DOCTYPE svg PUBLIC "-//W3C//DTD SVG 1.1//EN" "http://www.w3.org/Graphics/SVG/1.1/DTD/svg11.dtd">
<svg width="100%" height="100%" viewBox="0 0 2048 2048" version="1.1" xmlns="http://www.w3.org/2000/svg" xmlns:xlink="http://www.w3.org/1999/xlink" xml:space="preserve" xmlns:serif="http://www.serif.com/" style="fill-rule:evenodd;clip-rule:evenodd;stroke-linecap:round;stroke-linejoin:round;stroke-miterlimit:1.5;">
    <g id="レイヤー5">
        <path d="M94.253,1024.39C94.253,1024.39 0.826,1023.45 1.885,1116.97C3.167,1230.28 204.994,1344.76 308.481,1348.75C407.567,1352.57 410.898,1231.74 409.742,1434.3C408.608,1633.16 200.814,1844.29 202.422,1950.12C203.835,2043.08 207.068,2043.29 303.691,2042.86C406.563,2042.4 612.073,1642.82 612.782,1338.24C613.021,1235.42 614.53,1023.35 515.879,1024.77C411.068,1026.27 405.53,1129.75 309.073,1128.86C255.911,1128.38 417.761,611.319 717.784,611.664C1013.74,612.005 1026.2,819.638 1026.64,1022.62C1027.1,1231.84 995.547,1638.23 1025.99,1638.51C1229.07,1640.37 1231.17,1025.41 1231.17,1025.41C1231.17,1025.41 1294.89,1226.32 1329.79,1227.27C1438.09,1230.22 1436.01,1230.48 1434.23,1117.08C1431.62,949.919 1231.29,411.949 720.4,412.113C210.583,412.278 94.253,1024.39 94.253,1024.39Z" style="stroke:black;stroke-width:1px;"/>
    </g>
</svg>
