<?xml version="1.0" encoding="UTF-8" standalone="no"?>
<!DOCTYPE svg PUBLIC "-//W3C//DTD SVG 1.1//EN" "http://www.w3.org/Graphics/SVG/1.1/DTD/svg11.dtd">
<svg width="100%" height="100%" viewBox="0 0 2048 2048" version="1.1" xmlns="http://www.w3.org/2000/svg" xmlns:xlink="http://www.w3.org/1999/xlink" xml:space="preserve" xmlns:serif="http://www.serif.com/" style="fill-rule:evenodd;clip-rule:evenodd;stroke-linecap:round;stroke-linejoin:round;stroke-miterlimit:1.5;">
    <g id="レイヤー5">
        <path d="M99.224,1022.7C-0.087,1024.19 1.946,1022.76 3.835,1118.33C5.884,1221.95 91.417,1638.51 203.171,1639.33C295.301,1640.01 409.432,1552.44 409.657,1436.11C409.848,1337.45 413.401,1238.97 413.401,1238.97C413.401,1238.97 615.033,1084.86 714.298,1081.18C814.685,1077.46 1022.45,1119.06 1022.91,1232.78C1023.39,1352.23 702.816,1637.86 814.87,1637.57C1227.4,1636.53 1229.01,1190.28 1229.01,1190.28C1229.01,1190.28 1309.89,1232.13 1347.66,1231.55C1433.14,1230.23 1432.72,1230.38 1435.42,1130.37C1438.34,1022.04 1432.59,1024.51 1329.04,1022.74C1233.37,1021.1 921.369,881.442 716.517,883.324C614.128,884.265 408.483,1015.04 408.483,1015.04C408.483,1015.04 410.27,916.16 411.334,819.014C413.432,627.303 610.183,613.842 718.608,614.363C1020.66,615.813 1027.95,817.1 1123.27,816.499C1227.02,815.846 1228.73,734.759 1230.05,616.524C1231.32,502.25 919.99,411.822 712.542,410.522C498.921,409.183 202.518,614.568 203.803,823.605C204.431,925.763 209.652,1233.13 209.652,1233.13C209.652,1233.13 138.498,1022.11 99.224,1022.7Z" style="stroke:black;stroke-width:1px;"/>
    </g>
</svg>
