<?xml version="1.0" encoding="UTF-8" standalone="no"?>
<!DOCTYPE svg PUBLIC "-//W3C//DTD SVG 1.1//EN" "http://www.w3.org/Graphics/SVG/1.1/DTD/svg11.dtd">
<svg width="100%" height="100%" viewBox="0 0 2048 2048" version="1.1" xmlns="http://www.w3.org/2000/svg" xmlns:xlink="http://www.w3.org/1999/xlink" xml:space="preserve" xmlns:serif="http://www.serif.com/" style="fill-rule:evenodd;clip-rule:evenodd;stroke-linecap:round;stroke-linejoin:round;stroke-miterlimit:1.5;">
    <g id="レイヤー5">
        <path d="M105.338,1023.16C6.463,1021.93 2.29,1022.17 1.483,1126.84C1.061,1181.56 30.031,1297.46 100.796,1419.2C161.598,1523.8 261.197,1640.17 308.281,1640.06C412.23,1639.82 408.299,1543.02 408.172,1438.33C408.042,1331.41 703.327,1181.88 703.327,1181.88C703.327,1181.88 917.907,1639.68 1123.7,1638.44C1233.98,1637.78 1342.24,1634.71 1343.59,1536.02C1344.96,1436.02 1228.31,1434.85 1122.9,1434.69C1026.64,1434.55 877.666,1092.59 877.666,1092.59C877.666,1092.59 1006.35,1032.7 1121.21,955.614C1227.62,884.204 1320.86,795.163 1320.86,795.163C1320.86,795.163 1386.28,882.465 1434.71,986.782C1486.3,1097.91 1432.15,1229.56 1538.54,1228.57C1638.41,1227.64 1634.23,1151.25 1634.97,1126.95C1635.93,1095.76 1628.01,943.471 1564.43,817.614C1464.14,619.073 1363.45,409.013 1229.51,408.897C1133.5,408.814 1132.05,413.405 1132.57,510.104C1133.12,611.54 1231.46,500.705 1230.24,615.399C1229.02,731.705 818.652,925.215 818.652,925.215C818.652,925.215 519.132,409.648 408.977,409.157C203.625,408.242 97.449,412.755 98.407,516.774C99.313,615.204 206.607,607.153 304.839,613.542C411.223,620.461 615.743,1019.82 615.743,1019.82C615.743,1019.82 500.743,1084.93 449.297,1125.96C383.886,1178.12 223.272,1332.81 223.272,1332.81C223.272,1332.81 190.471,1257.71 163.507,1183.78C137.146,1111.5 132.235,1023.5 105.338,1023.16Z" style="stroke:black;stroke-width:1px;"/>
    </g>
</svg>
