<?xml version="1.0" encoding="UTF-8" standalone="no"?>
<!DOCTYPE svg PUBLIC "-//W3C//DTD SVG 1.1//EN" "http://www.w3.org/Graphics/SVG/1.1/DTD/svg11.dtd">
<svg width="100%" height="100%" viewBox="0 0 2048 2048" version="1.1" xmlns="http://www.w3.org/2000/svg" xmlns:xlink="http://www.w3.org/1999/xlink" xml:space="preserve" xmlns:serif="http://www.serif.com/" style="fill-rule:evenodd;clip-rule:evenodd;stroke-linejoin:round;stroke-miterlimit:2;">
    <g id="レイヤー5">
        <path d="M1275.99,1568.35C1197.73,1605.91 1106.61,1637.37 1020.4,1637.88C818.413,1639.08 617.606,1429.28 617.606,1429.28C617.606,1429.28 625.098,1548.73 598.336,1630.53C572.689,1708.91 515.06,1780.06 462.678,1847.87C415.311,1909.18 404.306,2044 306.284,2044.02C208.817,2044.04 203.222,1906.88 213.286,1842.21C223.351,1777.55 351.468,1736.04 347.07,1642.68C343.72,1571.54 292.683,1462.47 218.685,1376.77C123.661,1266.72 0.897,1182.07 0,1126.4C-1.648,1024.11 -0.662,1021.85 102.4,1024C160.685,1025.22 372.943,1190.48 420.48,1394.47C420.48,1394.47 437.33,796.47 407.668,694.682C388.122,627.611 287.679,877.581 234.976,813.437C124.406,678.864 347.701,410.673 507.409,407.554C653.685,404.698 613.499,762.88 613.499,762.88C613.499,762.88 819.2,419.943 1026.82,411.301C1265.74,401.355 1435.92,511.51 1433.48,614.415C1431.13,713.439 1415.32,727.745 1351.53,728.969C1267.02,730.589 1343.82,611.621 1022.67,614.68C822.253,616.589 613.234,1026.07 613.234,1026.07C613.234,1026.07 883.651,816.665 1024.69,816.992C1221.59,817.447 1435.31,1021.54 1434.15,1231.41C1434.05,1250.56 1432.03,1269.79 1428.28,1288.91C1462.3,1269.72 1528.25,1223.23 1565.93,1201.11C1650.87,1151.24 1712.8,1028.23 1749.46,1027.46C1847.23,1025.42 1845.86,1025.67 1843.65,1127.43C1842.89,1162.12 1730.2,1289.93 1593.77,1375.92C1519.03,1423.03 1370.13,1523.18 1275.99,1568.35ZM1024.16,993.95C1164.28,993.95 1260.16,1112.39 1236.3,1254.37C1211.5,1401.91 1152.07,1477.55 1023.01,1499.26C884.843,1522.51 728.562,1398.35 728.562,1254.37C728.562,1110.39 884.051,993.95 1024.16,993.95Z"/>
    </g>
</svg>
